<?xml version="1.0" encoding="utf-8"?>
<!-- Generator: Adobe Illustrator 15.0.0, SVG Export Plug-In . SVG Version: 6.00 Build 0)  -->
<!DOCTYPE svg PUBLIC "-//W3C//DTD SVG 1.1//EN" "http://www.w3.org/Graphics/SVG/1.1/DTD/svg11.dtd">
<svg version="1.1" id="Capa_1" xmlns="http://www.w3.org/2000/svg" xmlns:xlink="http://www.w3.org/1999/xlink" x="0px" y="0px"
	 width="380.5px" height="114px" viewBox="0 0 380.5 114" enable-background="new 0 0 380.5 114" xml:space="preserve">
<g>
	<g>
		<g>
			<path fill="#426CAD" d="M101.897,38.444c4.235,0,7.667-3.435,7.667-7.669c0-4.235-3.432-7.67-7.667-7.67
				c-4.237,0-7.669,3.435-7.669,7.67C94.228,35.01,97.66,38.444,101.897,38.444z"/>
			<path fill="#426CAD" d="M142.846,59.447c-2.515-11.963-13.155-20.644-25.3-20.644c-14.26,0-25.861,11.682-25.861,26.043
				c0,14.362,11.602,26.048,25.861,26.048c4.44,0,8.829-1.164,12.696-3.372l0.584-0.336l-0.217-0.633
				c-0.774-2.274-2.8-6.239-7.686-7.286l-0.225-0.051l-0.217,0.078c-1.594,0.563-3.254,0.848-4.937,0.848
				c-8.331,0-15.109-6.861-15.109-15.296c0-8.337,6.638-14.869,15.109-14.869c3.239,0,6.337,1.09,8.963,3.145
				c2.463,1.931,4.356,4.642,5.345,7.657h-6.998l-0.096,0.004c-5.69,0.673-7.671,5.537-8.257,7.6l-0.297,1.039h21.899l0.115-0.035
				c0.48-0.145,4.721-1.527,5.051-6.138l0.002-0.047l-0.002-0.047C143.254,62.784,143.154,60.869,142.846,59.447z"/>
		</g>
		<path fill="#426CAD" d="M182.164,66.859c-1.781-2.462-4.731-4.587-8.771-6.311c-4.053-1.73-6.62-3.07-7.847-4.094
			c-1.184-0.984-1.787-2.103-1.787-3.317c0-3.145,1.785-4.677,5.456-4.677c2.361,0,4.459,0.36,6.234,1.071l0.346,0.141l0.333-0.172
			c1.973-1.028,4.597-2.966,5.897-6.376l0.258-0.676l-0.639-0.337c-4.063-2.148-8.447-3.234-13.029-3.234
			c-4.731,0-8.676,1.223-11.721,3.642c-3.101,2.457-4.606,5.793-4.606,10.2c0,6.458,4.026,11.549,11.969,15.128
			c3.649,1.656,6.032,3.043,7.286,4.25c1.219,1.172,1.838,2.7,1.838,4.536c0,3.103-2.051,4.677-6.096,4.677
			c-2.665,0-5.188-0.625-7.492-1.855l-0.34-0.18l-0.357,0.148c-2.436,1.016-4.406,2.789-5.858,5.27l-0.82,1.97l0.623,0.355
			c2.663,1.516,4.896,2.544,6.632,3.056c1.848,0.543,4.337,0.82,7.398,0.82c5.441,0,9.812-1.352,12.988-4.017
			c3.18-2.673,4.795-6.388,4.795-11.033C184.854,72.352,183.947,69.328,182.164,66.859z"/>
		<path fill="#426CAD" d="M75.708,42.124c-3.297-2.285-8.527-3.398-15.989-3.398H42.013v52.169h10.222V48.638h10.314
			c1.824,0,3.387,0.293,4.641,0.863c1.252,0.574,2.211,1.234,2.848,1.965c0.635,0.73,1.139,1.691,1.495,2.855
			c0.369,1.22,0.588,2.224,0.648,2.985c0.064,0.805,0.096,1.793,0.096,2.941v30.646H82.5V60.15c0-4.391-0.389-8.001-1.152-10.724
			C80.548,46.59,78.649,44.133,75.708,42.124z"/>
		<rect x="21.304" y="38.722" fill="#426CAD" width="10.598" height="52.173"/>
	</g>
	<g>
		<rect x="203.519" y="38.886" fill="#426CAD" width="1.265" height="51.54"/>
		<g>
			<path fill="#426CAD" d="M265.226,69.902c-1.66,11.955-9.259,20.523-21.698,20.523c-13.127,0-22.318-10.709-22.318-25.426
				c0-11.956,6.427-26.259,23.217-26.259c13.061,0,19.485,9.881,19.694,15.963h-1.383c-0.554-7.118-7.601-14.58-18.312-14.58
				c-16.237,0-21.834,14.646-21.834,24.876c0,12.506,7.602,24.046,20.936,24.046c11.816,0,18.863-8.224,20.315-19.144H265.226z"/>
			<path fill="#426CAD" d="M271.926,89.249h-1.381V39.917h20.178c10.226,0,14.855,4.075,15.061,12.643
				c0.209,6.563-3.661,11.127-10.57,12.714v0.141c8.361,1.105,9.742,5.734,9.742,13.682c0,2.832,0.277,8.911,1.174,10.153h-1.52
				c-0.896-2-1.035-7.251-1.035-10.36c0-8.088-1.728-12.783-13.06-12.783h-18.589V89.249z M271.926,64.722h18.45
				c7.323,0,14.028-3.66,14.028-12.299c-0.07-6.978-3.94-11.127-13.336-11.127h-19.143V64.722z"/>
			<path fill="#426CAD" d="M356.916,39.917h2.279v49.332h-1.383V41.644h-0.137l-20.937,47.605h-1.521l-20.937-47.605h-0.137v47.605
				h-1.383V39.917h2.279l20.866,47.539h0.139L356.916,39.917z"/>
		</g>
	</g>
</g>
</svg>
