<?xml version="1.0" encoding="UTF-8"?>
<svg id="Layer_1" data-name="Layer 1" xmlns="http://www.w3.org/2000/svg" viewBox="0 0 240.96 115.01">
  <defs>
    <style>
      .cls-1 {
        fill: #fff;
      }

      .cls-2 {
        fill: #e82c2e;
      }

      .cls-3 {
        fill: #003660;
      }

      .cls-4 {
        fill: #231f20;
      }

      .cls-5 {
        fill: #ffcb05;
      }
    </style>
  </defs>
  <path class="cls-4" d="M122.23,6.1v2.02h7.53V51.28c0,4.31-1.75,7.9-5.21,10.68-3.15,2.51-6.71,3.79-10.58,3.79-3.3,0-6.04-.94-8.13-2.79-2.32-2.03-3.49-4.94-3.49-8.66V8.12h8.58v-2.02h-28.34v2.02h6.41V51.28c0,5.43,2.27,9.79,6.76,12.98,4.01,2.83,8.96,4.27,14.71,4.27s10.67-1.44,14.63-4.27c4.49-3.18,6.76-7.55,6.76-12.98V8.12h6.19v-2.02h-15.83Z"/>
  <path class="cls-4" d="M181.93,8.5c-.67,0-3.32-1.21-4.85-1.75-2.62-.93-5.38-1.39-8.21-1.39-.64,0-1.28,.03-1.91,.08-7.05,.5-13.2,3.79-18.28,9.81-5.25,6.28-7.92,13.58-7.92,21.7s2.56,15.31,7.61,21.54c4.95,6.13,11.08,9.48,18.22,9.98,0,0,1.13,.1,1.71,.1,2.82,0,8.07-.97,10.69-1.9,1.53-.54,4.18-1.75,4.85-1.75,1.38,0,2.51,.4,2.51,2.51,0,.1,0,.2,0,.29h1.67v-20.11h-2.08s-.01,1.01-.03,1.41c-.1,4.64-1.07,9.16-3.76,12.54-3.03,3.79-7.93,5.17-14,5.28-.47,0-1.36-.07-1.36-.07-4.12-.27-6.84-2.09-8.41-4.84-1.25-2.07-2.11-6.02-2.55-11.73-.3-3.67-.45-8.13-.45-13.24,0-3.96,.1-7.56,.3-10.68,.39-6.64,1.11-11.1,2.12-13.28,1.64-3.32,4.68-5.42,9.18-5.81,.61-.05,1.25-.08,1.92-.08,4.12,0,7.8,1.12,11.12,5,2.97,3.47,3.97,8.16,3.97,13.07v.63h2.1l.04-19.79h-1.71c0,2.32-1.13,2.48-2.51,2.48"/>
  <path class="cls-4" d="M234.86,8.5c-.67,0-3.32-1.21-4.85-1.75-2.62-.93-5.38-1.39-8.21-1.39-.65,0-1.28,.03-1.91,.08-7.05,.5-13.19,3.79-18.28,9.81-5.26,6.28-7.92,13.58-7.92,21.7s2.56,15.31,7.61,21.54c4.95,6.13,11.08,9.48,18.22,9.98,0,0,1.14,.1,1.72,.1,2.82,0,8.06-.97,10.69-1.9,1.53-.54,4.18-1.75,4.85-1.75,1.38,0,2.51,.4,2.51,2.51,0,.1,0,.2,0,.29h1.67v-20.11h-2.08s-.01,1.01-.03,1.41c-.1,4.64-1.07,9.16-3.76,12.54-3.03,3.79-7.93,5.17-14,5.28-.47,0-1.36-.07-1.36-.07-4.12-.27-6.84-2.09-8.41-4.84-1.25-2.07-2.11-6.02-2.55-11.73-.3-3.67-.45-8.13-.45-13.24,0-3.96,.1-7.56,.3-10.68,.39-6.64,1.11-11.1,2.12-13.28,1.64-3.32,4.68-5.42,9.18-5.81,.61-.05,1.25-.08,1.92-.08,4.12,0,7.8,1.12,11.13,5,2.96,3.47,3.97,8.16,3.97,13.07v.63h2.1l.03-19.79h-1.71c0,2.32-1.13,2.48-2.51,2.48"/>
  <g>
    <path class="cls-2" d="M5.75,29.91h28.32l.04,.02v2.85c-.96-.71-2.04-.91-2.85-.66-1.95,.59-2.51-.24-2.53-.26,0,0-.38,1.04-1.77,1.44l-.07,.83h-3.55l-.3,2.25h3.65l-.11,1.23h-3.69l-.34,2.47h3.81l-.14,1.63h7.25c.13,.26,.29,.45,.63,.57v30.48c-3.15-2.36-10.89-2.26-10.89-2.26-3.43,.06-6.87-.29-6.87-.29-2.89-.23-5.1-1.07-6.68-2.02l-.17-.1c-1.25-.83-2.29-1.77-3.14-2.75,0,0-2.92-2.79-3.91-7.7l-.02-.04c-.64-2.91-.51-5.22-.51-5.22-.06-3.12,.38-5.61,.76-7.16h0c1.12-4.12,1.56-6.16,1.56-6.16,.9-4.05,1.13-6.05,1.37-8.26,.03-.3,.05-.59,.08-.88l.06-.02Z"/>
    <path class="cls-3" d="M35.55,29.93h28.38c.03,.28,.05,.6,.08,.89,.23,2.21,.47,4.21,1.37,8.26,0,0,.44,2.04,1.56,6.16h0c.38,1.54,.82,4.04,.76,7.15,0,0,.14,2.32-.51,5.22l-.02,.04c-.99,4.91-3.9,7.7-3.9,7.7-.86,.98-1.9,1.92-3.15,2.75l-.17,.1c-1.58,.95-3.79,1.78-6.67,2.02,0,0-3.44,.36-6.87,.29,0,0-7.75-.1-10.9,2.26v-30.49c.34-.11,.52-.31,.65-.57h0l7.26-.02-.14-1.62h3.81l-.34-2.47h-3.7l-.11-1.22h3.65l-.3-2.26h-3.55l-.07-.83c-1.38-.39-1.76-1.44-1.76-1.44,0,.02-.61,.84-2.53,.26-.82-.25-1.91-.05-2.88,.68v-2.86l.05-.02Z"/>
    <g>
      <path class="cls-1" d="M35.14,39.46v-5.61c1.36-1.31,2.4-1.29,3.21-1.06,.86,.25,1.49,.22,1.93,.12l.35,5.67h0c-.33,.19-1.03,.39-2.25,.02-.89-.28-2.23-.02-3.23,.86"/>
      <g>
        <polygon class="cls-5" points="26.41 39.37 23.45 39.37 23.6 38.23 26.51 38.22 26.41 39.37"/>
        <polygon class="cls-5" points="26.82 34.78 26.74 35.73 23.95 35.73 24.06 34.78 26.82 34.78"/>
        <path class="cls-5" d="M40.97,33.09c.24,.25,.56,.49,1.05,.67h0l.55,6.48c-.73-.35-1.08-.87-1.22-1.12l-.38-6.04h0Z"/>
        <path class="cls-1" d="M29.33,32.91c.45,.1,1.07,.13,1.93-.12,.8-.23,1.85-.25,3.21,1.06v5.61c-1-.88-2.34-1.14-3.23-.86-1.23,.37-1.92,.17-2.26-.02l.34-5.67Z"/>
        <path class="cls-5" d="M27.59,33.77h0c.48-.19,.8-.43,1.05-.68l-.38,6.03c-.13,.25-.49,.77-1.22,1.12l.56-6.46Z"/>
        <path class="cls-5" d="M33.47,41h-6.51c1.52-.52,1.97-1.69,1.97-1.69l.4,.11c.45,.1,1.07,.13,1.93-.12,.8-.23,1.85-.25,3.21,1.05h0c-.46,.09-.84,.33-1,.65"/>
        <path class="cls-5" d="M34.8,41.68h0c-.41,0-.75-.16-.75-.34s.33-.34,.75-.34,.74,.16,.74,.34-.33,.34-.74,.34"/>
        <g>
          <polygon class="cls-4" points="44.48 35.04 44.54 35.47 45.28 35.47 45.24 35.04 44.48 35.04"/>
          <polygon class="cls-4" points="44.96 38.55 45.01 39.01 45.76 39.01 45.71 38.55 44.96 38.55"/>
          <path class="cls-4" d="M65.8,31.56s-.46-4.23-.51-6.49v-.15c-.24-10.79,4.39-16.75,4.39-16.75L61.48,0s-4.45,2.51-11.82,2.45c-5.42-.03-7.01-.87-8.46-1.22-1.44-.36-2.46-.8-6.37-.83-3.9-.04-4.91,.47-6.36,.83-1.44,.36-3.03,1.19-8.46,1.22-7.37,.06-11.82-2.45-11.82-2.45L0,8.18s4.62,5.96,4.39,16.75v.15c-.06,2.26-.51,6.49-.51,6.49-.32,2.77-1.09,7.45-2.86,13.48,0,0-3.12,12.86,3.4,20.54,3.52,4.14,6.72,6.45,16.12,6.51,11.05,.08,12.7,1.42,14.28,3.92h.07c1.58-2.5,3.23-3.84,14.28-3.92,9.4-.06,12.6-2.37,16.12-6.51,6.52-7.68,3.4-20.54,3.4-20.54-1.78-6.03-2.54-10.71-2.87-13.48ZM2.12,8.44h0l-.16-.04,.16-.03h0L8.52,1.99h.02c7.45,3.19,16.29,1.81,16.29,1.81,0,0,1.34-.09,3.16-.7,.9-.31,3.32-1.08,6.79-1.05h.09c3.48-.03,5.91,.75,6.8,1.05,1.82,.61,3.16,.7,3.16,.7,0,0,8.83,1.38,16.29-1.81l.02,.02,6.39,6.38v.06c-.28,.45-2.61,4.18-3.6,10.72-.41,2.66-.42,5.39-.08,9.33H5.81c.33-3.94,.33-6.68-.08-9.33-1.01-6.57-3.35-10.31-3.61-10.72ZM42.65,40.99h-6.5c-.16-.31-.53-.55-1-.64,0,0,0,0,0,.01h0c1.35-1.31,2.4-1.29,3.2-1.06,.86,.25,1.49,.22,1.93,.12l.4-.11s.45,1.17,1.97,1.68Zm-.08-.75c-.73-.35-1.08-.87-1.22-1.12l-.38-6.03c.24,.25,.56,.49,1.04,.67h0l.55,6.48Zm-1.95-1.66c-.33,.19-1.03,.39-2.25,.02-.89-.28-2.23-.02-3.23,.86v-5.61c1.36-1.31,2.4-1.29,3.21-1.06,.86,.25,1.49,.22,1.93,.12l.35,5.67h0Zm-11.69,.72l.4,.11c.45,.1,1.07,.13,1.93-.12,.8-.23,1.85-.25,3.21,1.05-.46,.09-.84,.33-1,.65h-6.51c1.52-.52,1.97-1.69,1.97-1.69Zm-1.33-5.53h0c.48-.19,.8-.43,1.05-.68l-.38,6.03c-.13,.25-.49,.77-1.22,1.12l.56-6.47Zm3.65,4.83c-1.23,.37-1.92,.17-2.26-.02l.34-5.67c.45,.1,1.07,.13,1.93-.12,.8-.23,1.85-.25,3.21,1.06v5.61c-1-.88-2.34-1.14-3.23-.86Zm2.86,34.16c-3.15-2.36-10.89-2.26-10.89-2.26-3.43,.06-6.87-.29-6.87-.29-2.89-.23-5.1-1.07-6.68-2.02l-.17-.1c-1.25-.83-2.29-1.77-3.14-2.75,0,0-2.92-2.79-3.91-7.7l-.02-.04c-.64-2.91-.51-5.22-.51-5.22-.06-3.12,.38-5.61,.76-7.16h0c1.12-4.12,1.56-6.16,1.56-6.16,.9-4.05,1.13-6.05,1.37-8.26,.03-.3,.05-.59,.08-.88l.06-.02h28.32l.04,.02v2.85c-.96-.71-2.04-.91-2.85-.66-1.95,.59-2.51-.24-2.53-.26,0,0-.38,1.04-1.77,1.44l-.07,.83h-3.55l-.3,2.25h3.65l-.11,1.23h-3.69l-.34,2.47h3.81l-.14,1.63h7.25c.13,.26,.29,.45,.63,.57v30.48Zm-7.29-37.98l-.08,.94h-2.79l.11-.94h2.75Zm-.31,3.44l-.1,1.15h-2.96l.15-1.14h2.91Zm8.29,3.45c-.41,0-.75-.16-.75-.34s.33-.34,.75-.34,.74,.16,.74,.34-.33,.34-.74,.34Zm32.38,15.94l-.02,.04c-.99,4.91-3.9,7.7-3.9,7.7-.86,.98-1.9,1.92-3.15,2.75l-.17,.1c-1.58,.95-3.79,1.78-6.67,2.02,0,0-3.44,.36-6.87,.29,0,0-7.75-.1-10.9,2.26v-30.49c.34-.11,.52-.31,.65-.57h0l7.26-.02-.14-1.62h3.81l-.34-2.47h-3.7l-.11-1.22h3.65l-.3-2.26h-3.55l-.07-.83c-1.38-.39-1.76-1.44-1.76-1.44,0,.02-.61,.84-2.53,.26-.82-.25-1.91-.05-2.88,.68v-2.86l.05-.02h28.38c.03,.28,.05,.6,.08,.89,.23,2.21,.47,4.21,1.37,8.26,0,0,.44,2.04,1.56,6.16h0c.38,1.54,.82,4.04,.76,7.15,0,0,.14,2.32-.51,5.22Zm-22.6-21.85h-1.7l-.09-.98h2.89l.13,.98h-1.22Zm-1.5,2.46h3.05l.14,1.15h-3.09l-.1-1.15Z"/>
        </g>
        <path class="cls-5" d="M36.13,41h0c-.16-.32-.53-.56-1-.65,0,0,0,0,0,.01h0c1.35-1.31,2.4-1.29,3.2-1.06,.86,.24,1.49,.22,1.93,.12l.4-.11s.45,1.17,1.97,1.68h-6.51Z"/>
        <path class="cls-5" d="M42.89,35.76l-.09-.98h2.89l.13,.98h-2.93Zm2.4-.29l-.04-.43h-.76l.06,.43h.75Z"/>
        <path class="cls-5" d="M43.09,38.22h3.05l.14,1.15h-3.09l-.1-1.15Zm1.87,.34h0Zm0,0l.05,.46h.75l-.05-.46h-.75Z"/>
      </g>
    </g>
    <path class="cls-5" d="M5.85,28.5H63.86c-.34-3.95-.33-6.69,.08-9.34,.99-6.53,3.32-10.27,3.6-10.72v-.06l-6.39-6.38-.02-.02c-7.46,3.19-16.29,1.81-16.29,1.81,0,0-1.34-.09-3.16-.7-.89-.31-3.32-1.08-6.8-1.05h-.09c-3.48-.03-5.9,.75-6.79,1.05-1.82,.61-3.16,.7-3.16,.7,0,0-8.84,1.38-16.29-1.81h-.02L2.12,8.38h0l-.16,.02,.16,.04h0c.26,.41,2.61,4.15,3.61,10.72,.41,2.66,.41,5.39,.08,9.33h.04Z"/>
    <path class="cls-4" d="M19.97,20.51h0l-.77-9.37,.41-1.29h.2l.93-2.78h-2.01l-.24,.69h-1.36v-.69h-3v.69h-1.36l-.25-.69h-2.01l.93,2.78h.2l.41,1.29-.76,9.38h0c-.46,.05-.81,.47-.81,.95,0,.42,.28,.75,.67,.88h0l-.27,3.33h4.2v-2.32h0c0-.22,.31-.4,.54-.4h.03c.23,0,.55,.18,.55,.41v2.31h4.19l-.26-3.35h0c.38-.11,.66-.44,.66-.86,0-.48-.35-.9-.81-.96M11.93,9.17l-.46-1.4h.56l.25,.67h2.54v-.67h1.63v.67h2.55l.24-.67h.57l-.46,1.41h-7.41Zm7.01,.69l-.23,.76h-6.14l-.24-.76h6.62Zm-6.21,1.46h5.8l.75,9.19h-7.31l.76-9.19Zm7.09,10.43h-3.14s.52,.66,.54,.66h2.21l.21,2.61h-2.78v-1.63c0-.6-.62-1.08-1.22-1.08h-.02c-.6,0-1.22,.48-1.23,1.08v1.63h-2.78l.21-2.61h2.21s.55-.66,.52-.66h-3.11c-.15,0-.27-.12-.27-.26,0-.16,.12-.3,.27-.3h8.39c.15,0,.28,.15,.28,.3s-.13,.26-.28,.26m-2.96,1.63h0Zm-2.48,0h0Zm.26-7.95h2.01v-2.8s-.1-.85-1.02-.85-.99,.85-.99,.85v2.8Zm.62-2.74s.06-.27,.37-.27,.37,.27,.37,.27v2.19h-.75v-2.19Zm-2.28,7.04h2.01v-2.8s-.11-.86-1.02-.86-.99,.86-.99,.86v2.8Zm.62-2.74s.06-.27,.38-.27,.38,.27,.38,.27v2.19h-.75v-2.19Zm4.68-.06s-.08-.86-.99-.86-1.02,.86-1.02,.86v2.8h2.01v-2.8Zm-.62,2.25h-.75v-2.19s.06-.27,.38-.27,.38,.27,.38,.27v2.19Z"/>
    <path class="cls-2" d="M11.93,9.17l-.46-1.4h.56l.24,.67h2.54v-.67h1.63v.67h2.55l.24-.68h.56l-.46,1.41h-7.41Zm7.01,.69l-.24,.77h-6.14l-.24-.77h6.62Zm-6.21,1.46h5.8l.75,9.19h-7.31l.76-9.19Zm7.09,10.43h-3.14s.52,.66,.54,.66h2.21l.21,2.61h-2.78v-1.63c0-.6-.62-1.08-1.22-1.08h-.02c-.6,0-1.22,.48-1.23,1.08v1.63h-2.77l.21-2.61h2.21s.55-.66,.51-.66h-3.11c-.15,0-.27-.12-.27-.26,0-.16,.12-.3,.27-.3h8.39c.15,0,.28,.14,.28,.3,0,.15-.13,.26-.28,.26m-2.96,1.63h0Zm-2.48,0h0Zm.26-7.95h2.01v-2.8s-.11-.85-1.02-.85-.99,.85-.99,.85v2.8Zm-1.66,4.3h2.01v-2.8s-.11-.86-1.02-.86-.99,.86-.99,.86v2.8Zm5.3-2.8s-.08-.86-.99-.86-1.02,.86-1.02,.86v2.8h2.01v-2.8Z"/>
    <path class="cls-4" d="M49.62,20.51c-.46,.06-.81,.48-.81,.96,0,.42,.28,.75,.66,.88h0l-.26,3.33h4.19v-2.31c0-.23,.32-.41,.55-.41h.03c.23,0,.54,.18,.54,.41h0v2.31h4.2l-.27-3.35h0c.39-.11,.67-.44,.67-.86,0-.48-.35-.9-.81-.96h0l-.76-9.37,.41-1.29h.2l.93-2.78h-2.01l-.25,.69h-1.36v-.69h-3v.69h-1.36l-.24-.69h-2.01l.93,2.78h.2l.41,1.29-.77,9.38h0m7.92-11.35h-7.28l-.46-1.41h.57l.24,.67h2.55v-.67h1.63v.67h2.54l.25-.67h.56l-.46,1.41h-.13Zm-.26,.69l-.24,.76h-6.14l-.23-.76h6.62Zm.35,10.64h-7.31l.75-9.19h5.8l.76,9.19Zm-7.85,1.24c-.15,0-.28-.12-.28-.26,0-.16,.13-.3,.28-.3h8.39c.15,0,.27,.15,.27,.3s-.12,.26-.27,.26h-3.11s.49,.66,.52,.66h2.21l.21,2.61h-2.78v-1.63c0-.6-.62-1.08-1.22-1.08h-.02c-.61,0-1.22,.48-1.23,1.08v1.63h-2.77l.21-2.61h2.21s.57-.66,.54-.66h-3.14m2.96,1.64h0Zm2.48,0h0Zm-.26-10.74s-.08-.85-.99-.85-1.02,.85-1.02,.85v2.8h2.01v-2.8Zm-.62,2.25h-.75v-2.19s.06-.27,.38-.27,.38,.27,.38,.27v2.19Zm2.28,2.05s-.09-.86-.99-.86-1.02,.86-1.02,.86v2.8h2.01v-2.8Zm-.62,2.25h-.75v-2.19s.06-.27,.37-.27,.38,.27,.38,.27v2.19Zm-4.68,.55h2.01v-2.8s-.11-.86-1.02-.86-.99,.86-.99,.86v2.8Zm.62-2.74s.06-.27,.38-.27,.38,.27,.38,.27v2.19h-.75v-2.19Z"/>
    <path class="cls-2" d="M57.54,9.18h-7.28l-.46-1.41h.57l.24,.67h2.55v-.67h1.63v.67h2.54l.24-.68h.56l-.46,1.41h-.13Zm-.26,.69l-.24,.77h-6.14l-.24-.77h6.62Zm.34,10.64h-7.31l.75-9.19h5.8l.76,9.19Zm-7.85,1.24c-.15,0-.28-.12-.28-.26,0-.16,.13-.3,.28-.3h8.39c.15,0,.27,.14,.27,.3,0,.15-.12,.26-.27,.26h-3.11s.48,.66,.51,.66h2.21l.21,2.61h-2.78v-1.63c0-.6-.62-1.08-1.22-1.08h-.02c-.61,0-1.22,.48-1.23,1.08v1.63h-2.77l.21-2.61h2.21s.57-.66,.54-.66h-3.14m2.96,1.64h0Zm2.48,0h0Zm-.26-10.74s-.08-.85-.99-.85-1.02,.85-1.02,.85v2.8h2.01v-2.8Zm1.66,4.29s-.08-.86-.99-.86-1.02,.86-1.02,.86v2.8h2.01v-2.8Zm-5.3,2.8h2.01v-2.8s-.11-.86-1.02-.86-.99,.86-.99,.86v2.8Z"/>
    <path class="cls-4" d="M36.9,26.31h0v0Zm-2.05,0h0v0Zm4.5-7.97c-.15,0-.29,.06-.38,.16l-.47,.49c-.1,.1-.24,.16-.39,.16h-1.99l-.33-5.51h0c2.27-1.03,2.96-3.3,2.96-3.3,.13,.02,.16,.04,.3,.04,1.28,0,2.06-.91,2.06-2.2,0-.29-.06-.48-.16-.73l.59-.29-.3-.62-5.7,2.85h0l-.21-3.91c0-.15-.13-.28-.28-.28s-.27,.13-.27,.28h-.01l-.04,.74h0c-.25-.14-.98-.43-1.98,.39-1.29,1.06-2.26,.19-2.19,.36,.07,.16,.67,2.2,2.5,2,.9-.09,1.32-.07,1.53,0h0l-.06,.93-6.49,3.24,.3,.61,.54-.26h0c.41,.62,.8,1.19,1.89,1.19,.67,0,1.27-.37,1.68-.83h0c.27,.19,.61,.22,.97,.22,.25,.03,.37,.01,.37,.01,.16-.01,.27-.03,.42-.05l-.31,5.11h-1.66c-.1,0-.26-.03-.54-.21-.29-.18-.54-.58-1.16-.58h-5.81c-1.14,0-1.1,1.88-.07,1.88,1.17,0,1.07,.99,1.61,.99h.76l2.13,3.06h0c.22,.32,.57,.49,.99,.49h2.98l1.33,1.8c.04,.06,.1,.1,.18,.1,.11,0,.28-.09,.28-.2,0-.06-.02-.1-.06-.14l-1.15-1.55h1.47l1.33,1.8h0c.03,.06,.1,.1,.18,.1,.11,0,.28-.09,.28-.2,0-.06-.03-.1-.07-.14l-1.15-1.55h1.48l1.32,1.8c.04,.06,.1,.1,.18,.1,.11,0,.28-.09,.28-.2,0-.06-.02-.11-.06-.15v.02l-1.15-1.56h1.47l1.33,1.8h0c.03,.06,.1,.1,.18,.1,.11,0,.28-.09,.28-.2,0-.06-.02-.11-.06-.15v.02l-1.15-1.56h.13c.67,0,1.23-.51,1.23-1.19v-1.89c.01-.67,.17-1.24,1.26-1.24h1.43v-2.1h-4.54Zm-5.97-9.93c-.51,.06-.85,.02-1.1-.06-.23-.06-.55-.35-.78-.67h.16c.44-.07,.82-.13,1.59-.77,.71-.59,1.32-.19,1.45-.09h0l-.08,1.6c-.45-.1-.99-.04-1.24,0m-1.57,4.26h-.01c.04,.23,.11,.45,.24,.64h0c-.21,.46-.68,.72-1.2,.72-.6,0-1.11-.35-1.28-.9h0l10.89-5.42v.02c.02,.06,.01,.11,.01,.18,0,1.13-.24,2.01-1.99,2.01-.28,0-.53-.05-.78-.15h0c.15,.14,.31,.25,.5,.33-.43,1.55-1.54,2.46-3.04,3.03-2.15,.82-3.34-.47-3.34-.47m3.65,6.48h-.83l.21-5.21c.09-.03,.22-.05,.31-.07l.07-.03,.24,5.31Zm-5.2,4.98c-.15,0-.35-.07-.45-.18,0,0-1.89-2.63-1.93-2.7-.05-.07,.11-.19,.19-.1,.1,.09,2.1,2.04,2.1,2.04,.22,.24,.6,.4,.96,.4h1.13l.39,.54h-2.38Zm2.96,0l-.39-.54h1.47l.4,.54h-1.48Zm2.05,0l-.39-.54h1.47l.39,.54h-1.47Zm2.05,0l-.39-.54h1.47l.4,.54h-1.48Zm3.22-.64c0,.3-.3,.64-.6,.64h-.56l-.41-.56c.44-.07,.71-.32,.87-.71l.02-.05,.78-1.69c-.07,.2-.11,.42-.11,.64v1.74Zm2.68-3.86h-2.61c-.34,0-1.51,.98-1.51,.98-.05,.05-.12,.07-.19,.07h-7.27s-.1-.01-.14-.04l-1.9-.96c-.08-.05-.16-.07-.26-.07h-4.51c-.33,0-.35-.59,0-.59h5.75c.1,0,.2,.03,.28,.07l.78,.56c.18,.11,.4,.17,.62,.17h6.14c.15,0,.28-.07,.38-.16h0s.71-.64,.86-.64h3.59v.59Zm-4.73,3.34s-.34-.44-.39-.52c-.02-.02,0-.11,.06-.11,.06,0,.08,.03,.1,.06,.08,.1,.08,.16,.16,.16,.14,0,.15-.11,.15-.14,0-.43-.4-.66-.82-.66-.45,0-.73,.2-.73,.66,0,0,.03,.14,.19,.14,.15,0,.08-.21,.21-.21,.06,0,.08,.02,.1,.05,.06,.09,.24,.31,.27,.36l.15,.22h-1.51s-.34-.44-.39-.52c-.02-.02,0-.11,.06-.11s.08,.03,.1,.06c.08,.1,.08,.16,.16,.16,.14,0,.15-.11,.15-.14,0-.43-.41-.66-.82-.66-.45,0-.73,.2-.73,.66,0,0,.03,.14,.19,.14,.15,0,.08-.21,.21-.21,.05,0,.08,.02,.1,.05,.06,.09,.24,.31,.27,.36l.16,.22h-1.51s-.34-.44-.39-.52c-.02-.02,0-.11,.06-.11,.06,0,.08,.03,.11,.06,.08,.1,.08,.16,.16,.16,.14,0,.16-.11,.16-.14,0-.43-.41-.66-.82-.66-.45,0-.74,.2-.74,.66,0,0,.03,.14,.19,.14,.15,0,.07-.21,.21-.21,.06,0,.08,.02,.1,.05,.06,.09,.24,.31,.27,.36l.15,.22h-1.48s-.34-.44-.39-.52c-.02-.02,0-.11,.06-.11s.08,.03,.1,.06c.08,.1,.08,.16,.16,.16,.14,0,.15-.11,.15-.14,0-.43-.41-.66-.82-.66-.45,0-.73,.2-.73,.66,0,0,.03,.14,.19,.14,.15,0,.07-.21,.21-.21,.06,0,.08,.02,.1,.05,.06,.09,.24,.31,.27,.36,.07,.1,.15,.22,.15,.22h-.86c-.16,0-.31-.16-.43-.27l-2.05-1.94c-.06-.06-.36-.09-.45-.09h-1.52c-.39,0-.4-.47,0-.47h2.53c.1,0,.19,.02,.27,.06,.08,.04,1.89,1,1.89,1,.12,.07,.26,.11,.42,.11h7.27c.23,0,.43-.02,.58-.17h0l.66-.67-.93,2-.02,.04c-.08,.19-.22,.37-.44,.37h-.27Z"/>
    <path class="cls-2" d="M33.38,8.41c-.51,.06-.85,.02-1.1-.06-.23-.06-.55-.35-.77-.67h.16c.44-.07,.82-.13,1.59-.77,.71-.59,1.32-.19,1.45-.09h0l-.08,1.6c-.45-.1-.99-.04-1.24,0m-1.57,4.26h-.01c.04,.23,.12,.45,.24,.64h0c-.21,.46-.67,.72-1.2,.72-.6,0-1.11-.35-1.28-.9h0l10.89-5.42v.02c.02,.06,.01,.11,.01,.18,0,1.13-.24,2.01-1.99,2.01-.27,0-.53-.05-.77-.15h0c.15,.14,.31,.25,.5,.33-.43,1.55-1.54,2.46-3.04,3.03-2.15,.82-3.34-.47-3.34-.47m3.65,6.48h-.83l.21-5.21c.09-.03,.22-.05,.31-.07l.07-.03,.24,5.31Zm-5.2,4.98c-.15,0-.35-.07-.45-.18,0,0-1.89-2.63-1.93-2.7-.05-.07,.11-.19,.19-.1,.1,.09,2.1,2.04,2.1,2.04,.22,.24,.6,.4,.96,.4h1.13l.39,.54h-2.38Zm2.96,0l-.39-.54h1.47l.4,.54h-1.48Zm2.05,0l-.39-.54h1.47l.39,.54h-1.47Zm2.05,0l-.39-.54h1.47l.4,.54h-1.48Zm3.22-.64c0,.3-.3,.64-.6,.64h-.56l-.41-.56c.44-.07,.71-.32,.87-.71l.02-.05,.79-1.69c-.07,.2-.11,.42-.11,.64v1.74Zm2.68-3.86h-2.62c-.34,0-1.51,.98-1.51,.98-.05,.05-.12,.07-.19,.07h-7.27s-.1-.01-.14-.04l-1.9-.96c-.08-.05-.16-.07-.26-.07h-4.51c-.33,0-.35-.59,0-.59h5.75c.1,0,.2,.03,.28,.07l.77,.56c.18,.11,.4,.17,.62,.17h6.14c.15,0,.28-.07,.38-.16h0s.71-.64,.86-.64h3.59v.59Zm-4.73,3.34s-.34-.44-.39-.52c-.02-.02,0-.11,.06-.11s.08,.03,.1,.06c.08,.1,.08,.16,.16,.16,.14,0,.16-.11,.16-.14,0-.43-.4-.66-.82-.66-.45,0-.73,.2-.73,.66,0,0,.03,.14,.19,.14,.15,0,.08-.21,.21-.21,.06,0,.08,.02,.1,.05,.06,.09,.24,.31,.27,.36l.15,.22h-1.51s-.33-.44-.39-.52c-.01-.02,0-.11,.06-.11,.06,0,.08,.03,.11,.06,.08,.1,.08,.16,.16,.16,.14,0,.15-.11,.15-.14,0-.43-.4-.66-.82-.66-.45,0-.73,.2-.73,.66,0,0,.03,.14,.19,.14,.15,0,.08-.21,.21-.21,.06,0,.08,.02,.1,.05,.06,.09,.24,.31,.27,.36l.15,.22h-1.51s-.34-.44-.39-.52c-.02-.02,0-.11,.06-.11,.06,0,.08,.03,.11,.06,.08,.1,.08,.16,.16,.16,.14,0,.15-.11,.15-.14,0-.43-.41-.66-.82-.66-.45,0-.74,.2-.74,.66,0,0,.03,.14,.19,.14,.15,0,.07-.21,.21-.21,.05,0,.08,.02,.1,.05,.06,.09,.24,.31,.27,.36l.15,.22h-1.48s-.34-.44-.39-.52c-.02-.02,0-.11,.05-.11s.08,.03,.1,.06c.08,.1,.08,.16,.16,.16,.14,0,.15-.11,.15-.14,0-.43-.41-.66-.82-.66-.45,0-.73,.2-.73,.66,0,0,.03,.14,.19,.14,.15,0,.07-.21,.21-.21,.06,0,.08,.02,.1,.05,.07,.09,.24,.31,.27,.36,.07,.1,.15,.22,.15,.22h-.86c-.15,0-.31-.16-.42-.27l-2.04-1.94c-.06-.06-.36-.09-.45-.09h-1.52c-.39,0-.4-.47,0-.47h2.53c.1,0,.19,.02,.27,.06,.08,.04,1.89,1,1.89,1,.12,.07,.26,.11,.42,.11h7.27c.23,0,.43-.02,.58-.17h0l.66-.67-.93,2-.02,.04c-.08,.19-.22,.37-.44,.37h-.27Z"/>
    <path class="cls-5" d="M8.15,48.2c-.11-.02-.86-.28-.86-.28-.4-.1-.81-1.14-.81-1.14,.29-.35,.97-.51,.97-.51,0,0,.92-.09,1-.5,0,0,.02-.1,.03-.22,0,0,.1,.15,2.71,.15s2.7-.16,2.7-.16v.06c.04,.53,1.29,.67,1.29,.67,.41,.06,.64,.45,.64,.45,.07,.2-.18,.36-.88,1.13-.19,.22-.76,.13-.96,.17-.01,.03-.03,.05-.04,.07,.07,.14,.31,.56,.45,.96,0,0-.15,0-.32,.09-.18,.09-.29,.34-.29,.34,.25,.59,.3,.76,.3,.76-.32-.02-.53,.15-.53,.15,.35,.76,0,1.35,0,1.35-.21-.17-.54-.21-.77-.23l-.24,.03c-.03,1.15-.42,1.15-.42,1.15-.39-.52-1.25,.05-1.25,.05-.48-.18-.77-1.09-.77-1.09-.41,.08-.63,.39-.63,.39-.41-.75-.41-1.42-.41-1.42-.37,.04-.68,.41-.68,.41-.66-.7,.14-1.87,.14-1.87-.2,.04-.49,.04-.49,.04-.37-.1-.47-.04-.5,0,.1-.28,.62-1.01,.62-1.01m-1.46,13.59s-.06-.18-.01-.44h-.01s-.44,.01-.68,.36c0,0,.26-.05,.7,.07h0Zm.24,1.33s-.12-.12-.17-.41c0,0-.39,.19-.46,.6v.04s.2-.13,.63-.23m12.12-.38s-.02-.08-.03-.2c0-.06,0-.13,.02-.22-.11,.02-.42,.1-.6,.39,.08,0,.28-.01,.61,.03m8.71,.07c-.04-.16-.04-.3-.01-.42-.02,0-.44,.07-.62,.44,0,0,.21-.05,.63-.02m-15.91-20.76c.98-.08,1.55,.18,1.89,.91,0,0,.19-.19,.19-.4s-.16-.6-1.03-.86c-.82-.25-1.05,.29-1.05,.35m-2.71,3.17c.11,.1,1.36,.1,1.5,.07,.14-.03,.27-.08,.27-.36,0-.23-.18-.27-.27-.27s-1.31-.09-1.47-.01c-.15,.07-.14,.47-.03,.57m-.07-1.06c.09,.09,.56,.06,.56,.06,0-.62-.58-.61-.58-.61,0,0-.07,.46,.01,.54m2.39,.78c0,.28,.13,.33,.27,.36,.14,.03,1.39,.02,1.5-.07,.12-.1,.12-.5-.03-.57-.16-.08-1.38,.01-1.47,.01s-.27,.04-.27,.27m1.85-1.32s-.57-.01-.57,.6c0,0,.48,.02,.56-.06,.09-.09,.01-.54,.01-.54m-1.74-1.12l-.2,.7,.72-.24v.86l-.72-.23,.19,.65h.73c0-.55,.3-1.05,.93-1.05,.32,0-.31-.75-1.13-.75-.24,0-.4,.04-.53,.08m-1.3-.08c-.81,0-1.45,.75-1.13,.75,.63,0,.94,.5,.94,1.05h.73l.19-.65-.71,.23v-.86l.71,.24-.2-.7c-.13-.04-.29-.08-.52-.08m-1.64,.54c.35-.73,.91-.99,1.89-.91,0-.06-.23-.6-1.05-.35-.88,.26-1.03,.64-1.03,.86s.19,.4,.19,.4m1.76,12.15c.12,.14,.28,.59,.28,.59,.4-.29,.56-.43,.56-.34,0,.06-.17,.38,.64,1.32,1.15-.48,.86-1.82,.79-2.18,.64-.04,1.47,.77,1.47,.77,.39-.64,.46-1.13,.46-1.13,.01-.21-.08-.9-.08-.9,.41-.38,1.16-.45,1.16-.45-.38-1.11,.15-1.44,.15-1.44,0,0-.47-.44-.13-1.44,0,0,.12-.5,.46-.79,0,0-.16-.07-.24-.11-.32-.13-.48-.45-.48-.45l-.14-.18c-.33,.18-.48,.15-.48,.15,.45,.78,.39,1.11,.39,1.11-.45-.17-.64,.04-.64,.04l.03,.09c.33,.82,.13,1.11,.07,1.09-.22-.09-.29-.05-.29-.05,.02,.26,.02,.25,.02,.25-.03,1.32-.92,1.77-.92,1.77-.04-.49-.48-.57-.48-.57,0,.92-.96,1.34-.96,1.34-.25-.89-1.38,.06-1.38,.06-.04-.15-.82-1.1-.82-1.1-.16,.13-.23,.71-.23,.71-.79-.47-.98-1.57-.98-1.57-.23,.16-.23,.41-.23,.41-.62-.21-.81-1.07-.81-1.07-.11,.83-.63,1.28-.63,1.28,.13,.53,.86,.3,.86,.3,0,0,.18,.98-.09,1.47,.6,.08,.73-.09,.73-.09,1.12,.61,1.18,1.71,1.18,1.71,.45-.21,.76-.57,.76-.57m-2.51,8.97s-.2-.16-.25-.36c0,0-.35,.29-.31,.7l.02,.02s.15-.16,.55-.36m2.53-2.93c1.04-.63,1.43-.66,1.43-.66-.49-.43,.45-1.79,.45-1.79,.11,.15,.25,.28,.25,.28,.26-.43,.52-.84,.52-.84,0,0-.35-.69-.74-1.05,0,0-.54,.4-.55,.39-.65-.77-1.03-1.33-1.03-1.33,.08,.16,.08,.86,.08,.86-.11,2.27-1,3.38-1,3.38-.38,.61-1.59,1.28-1.59,1.28-.18-.18-.37-.33-.37-.33-.42-.28-.58-.07-.58-.07-.22,.17-.11,.37-.11,.37,.04,.25,.35,.27,.35,.27,.4,.06,.68,.42,.68,.42-.34-.12-.57-.07-.57-.07-.31,.04-.33,.24-.33,.24-.06,.27,.07,.4,.07,.4,.21,.15,.44,0,.44,0,.56-.28,.68-.01,.68-.01-.28,.1-.58,.41-.32,.74,.32,.4,1.07-.52,1.07-.52,.21-.36,.71-.52,.71-.52-.49-.73,.44-1.43,.44-1.43m1.08,2.08l-.04-.07s-.04-.06-.06-.12c-.02-.06-.02-.14-.03-.22h-.01c-.07,.04-.37,.18-.49,.55,0,0,0,.03,0,.04,0,0,.22-.1,.65-.18m.92,.85l-.02-.02s-.07-.02-.15-.06c-.02-.01-.03-.02-.05-.03-.06-.04-.1-.07-.16-.13,0,0-.21,.36-.02,.74,0,0,.01,0,.02,.02,0,0,.09-.2,.38-.52m1.46,.27c-.09-.04-.2-.1-.3-.19,0,0,0,0,0-.02-.01-.01-.03-.01-.04-.02,0,0-.18,.39,.04,.76h0s.08-.22,.31-.53m6.84-7.93c1.6-1.13,2.91-.94,2.91-.94-.57-.46-1.67-.39-1.67-.39-.67,.06-1.29,.45-1.7,.75l.46,.58Zm-.77,4.98s0,0,0-.02c0-.03,.01-.09,.05-.18,.03-.06,.07-.12,.12-.2,0,0-.05,0-.12-.02-.15-.02-.42-.04-.64,.14,0,0,.21,.05,.59,.28m-.07,2.7s-.05-.06-.11-.14c0-.01,0-.01,0-.02-.04-.05-.06-.11-.09-.18-.08,.07-.31,.29-.31,.62,.07-.05,.23-.16,.52-.29h0Zm4.51-5.57c-.36,.12-.6,.03-.6,.03,.72-1.97,.4-2.18,.4-2.18-.06-.17-.46-.29-.46-.29,0,0-1.26-.3-2.81,.87-.47,.47-.2,1.05-.2,1.05,0,0,.22-.15,.38-.23,.79-.38,.55,.6,1.85,.87,0,0,.88,.4,.95,1.09,0,0,.17,.66-.33,1.37,0,0-.27,.63-1.12,.63,0,0-.13,.02-.64-.05-.53-.06-.96-.38-.96-.38-.41-.15-.34,.45-.34,.45,.65,.3,.6,.59,.6,.59-1.2-.54-1.49,.06-1.49,.06-.07,.28,.19,.37,.19,.37,.18,.12,1,.2,1,.2-.55,.29-.53,.61-.53,.61-.04,.34,.46,.16,.46,.16,.51-.22,.82-.79,.82-.79,.55,.18,.6,.6,.6,.6,.48-.78,.77-.9,.77-.9,.51-.39,1.29-.68,1.29-.68,.44,.04,.71,.22,.71,.22,0-.63-.29-1.16-.29-1.16,.31,0,.69,.13,.69,.13-.28-.46-.12-1.25-.12-1.25-.91-.41-.79-1.39-.79-1.39m3.88,2.52s-.45-.04-.73,.27c0,0,.22,.01,.63,.16v-.03s0-.04,0-.07c0-.02,0-.07,.01-.1,0-.01,0-.02,0-.03,0-.04,.01-.08,.03-.13,0-.02,.02-.05,.04-.07m.6,2.95c-.09-.06-.17-.13-.24-.23-.02-.02-.04-.05-.05-.08-.04,.05-.28,.34-.2,.72,0,0,.13-.17,.49-.41m.12-1.6s-.26-.19-.42-.14c0,0-.28,.06-.28,.29,0,0,0,.17,.17,.3l.08,.05s.16-.45,.45-.5m3.63-1.4c-.1-.13-.26-.3-.28-.69-.05-1.29,.24-1.78,.24-1.78-.29,.05-.82,0-.82,0,.03-.49-.4-1.11-.4-1.11-.2,.22-.32,.83-.32,.83-1.59-.53-1.89-1.49-1.89-1.49-.26-.67-.15-1.55-.15-1.55,.1-1.28-.23-1.43-.23-1.43-.24-.48-.47-.54-.69-.48-.28,.06-.67,.63-.67,.63,.08-.35,.04-.46,.27-.85,.34-.57,1.24-.47,1.24-.47,2.02-.28,2.01-2.35,2.01-2.35-.06-1.81-1.3-2.16-1.57-2.27-.27-.1-.73-.12-1.09-.1-.37,.02-1.09-.07-1.09-.07-.75-.12-.91-1.03-.92-.99-.39,.45-.16,1.11-.16,1.11-.83-.05-1.05-.22-1.05-.22-.49-.16-.58-.64-.58-.64-.08,.31-.05,1.08-.05,1.08-1.45-.07-5.03-.21-5.03-1.91,0-1.09,2.5-1.44,4.03-.86,0,0,.12-.71,0-.88,0,0,1.65,1.11,2.86,.51,0,0,.4-.15,.67-.42,0,0-.21,.13-1.44-.06-.56-.09-.43-.25-.19-.73-.58-.03-.39-.1-1.31-.33-.93-.23-1.81,.37-1.81,.37-.13-.78-.47-.96-.47-.96,.09,.65-.54,1.07-.54,1.07-.06,.05-.41,.3-1.07,.5-.64,.22-1.58,.58-1.58,1.79,0,1.91,2.23,2.35,3.83,2.47,.95,.07,1.58,.04,1.58,.04,0,.08,.08,.52,.08,.52,.63-.66,1.29-.15,1.5-.01,0,0,.25-.65,.83-.65,.7,0,1.08,.64,1.08,.64,.44-.85,1.26-.72,1.26-.72,.73-.04,1.65,.64,1.58,1.8-.1,1.61-1.67,1.58-1.67,1.58-.97,.15-2.07-.15-2.24-.2-.16-.06-.7-.42-1.86-.57-1.01-.12-2.27,.31-2.27,.31-1.43,.3-3.76,0-3.76,0l-.33-.07c-1.15-.27-1.92-1.08-1.92-1.08-.07,.2,.01,.54,.01,.54,.09,.38,.55,.83,.55,.83-.56-.05-.63,.28-.63,.28-.17,.36,.03,.73,.03,.73,.31,.51,.58,1.11,.58,1.11-.3-.22-.63-.27-.63-.27-.88-.08-1.01,.2-1.01,.2,.05,.11,.05,.28,.05,.28,.13,.68-.45,1.5-.45,1.5-.17,.27-.34,.69-.34,.69-.58-.75-1.13-.93-1.13-.93,.16,1.02-.41,1.41-.41,1.41,.85,.78,1.39,2.56,1.39,2.56,.6,1.71,.34,2.29,.34,2.29-.37,.9-1.12,.9-1.12,.9-.47,.06-.76-.08-.76-.08-.61-.42-.82,.28-.77,.43,.09,.23,.42,.07,.42,.07,.3-.13,.4,.07,.4,.07-.29,0-.31,.37-.31,.37,0,.25,.18,.28,.18,.28,.4,.09,.67-.17,.67-.17,.15-.07,.15-.32,.41-.46,.27-.13,.52-.03,.52-.03-.22,.03-.36,.42-.36,.42-.12,.48,.41,.47,.41,.47,.28-.03,.37-.46,.37-.46,.2-.36,.72-.43,.72-.43,.27-.09,.26-.22,.32-.7,.07-.59,.81-1.74,.81-1.74-.97-.15-.89-.83-.89-.83,.33,0,.47-.27,.47-.27-.5-.39-.67-1.04-.67-1.04-.24-.64,.25-1.74,.25-1.74,.36-.99,1.11-1.58,1.11-1.58-.45,.89-.47,1.54-.47,1.54,2.32,.02,1.7-2.14,1.7-2.14,.74,.81,.15,2.01,.15,2.01,1.94-.44,1.33-2.46,1.33-2.46,.68,.46,.55,1.27,.55,1.27,.77-.65,1.57-.65,1.57-.65-.07-.13-.41-.42-.41-.42,2.82-.15,3.5,1.67,3.5,1.67,.5,.99,.14,1.8,.14,1.8,.3-.14,1.26-.81,1.26-.81,.03,.72,.47,1.76,.47,1.76-.03-.91,1.15-.29,1.15-.29,.5,.28,2.47,.99,2.47,.99,.55,.21,.67,.65,.67,.65,.27,.59,.04,1.24,.04,1.24-.2,.48-.48,.65-.9,.7-.18,.02-.48-.28-.48-.28-.1-.06-.3-.3-.37-.36-.07-.05-.19-.04-.31,.06-.11,.09-.06,.29-.06,.29,.05,.18,.19,.23,.19,.23,.43,.19,.52,.52,.52,.52,.72,.07,.81,.59,.81,.59-.48-.35-.87-.15-1.03,0-.18,.21-.08,.4-.08,.4,.21,.3,.4,.19,.81,0,.41-.17,1.02-.17,1.26-.18,.24,0,.38-.07,.41-.16,.03-.09,.05-.71,.05-.71,.04-.67,.94-1.26,.94-1.26"/>
    <path class="cls-4" d="M33.02,60.3c-.07-.43-.04-1.14-.04-1.14,0-.48,.72-.85,.72-.85-.35-.4-1.34-.32-1.34-.32,0-.23-.51-.89-.68-1.5-.76,0-1.02,.87-1.02,.87-.09-.04-.4-.19-.76-.61-.36-.42-.2-1.76-.2-1.76,0-1.86-.58-1.75-.58-1.75,2.6-.46,2.42-3.15,2.42-3.15-.26-3.11-3.2-2.84-3.2-2.84h-.73c-.98-.02-.94-1.21-.94-1.21-.96,.08-1.13,1.19-1.13,1.19-.83-.13-.76-1.16-.76-1.16-.9,.1-.98,1.42-.98,1.42-1.32,0-3.89-.32-3.89-1.25,0-.38,.33-.67,2.27-.67,0,0,1.08,.04,1.59,.69,0,0,.13-.53,.06-1.02,.08,.06,1.15,.8,2.53,.26,1.21-.48,1.5-1.54,1.56-1.66,0,0-.44,.42-2.24,.21,0,0,.28-.37,.45-.97,0,0-.73,.45-1.29,.17-1.1-.57-1.98-.29-2.42-.09,0,0-.43-1.04-1.24-1.13,0,0,.56,1.25-1.28,1.95-.36,.14-1.99,.62-1.99,2.27s1.52,3.05,5.57,3.05c0,0,.03,.33,.17,.76,0,0,.75-1.14,2.05-.06,0,0,.25-.86,.79-.86,.46,0,.86,.82,1.13,.91,0,0,.03-.72,.85-.9,0,0,1.09-.18,1.14,1.1,0,0,.04,.98-1.3,1.04-.99,.04-1.88-.22-2.28-.41-.4-.18-2.01-.68-3.64-.09-.97,.34-3.13,.16-4.02-.02-1.16-.24-1.84-.66-1.84-1.12s.66-.29,.62-.41c-.09-.28-.34-.45-.76-.62-.91-.36-1.09-.57,.09-1.7,0,0,.08-.56-.68-1.08-.25-.17-.38-.15-.74-.21,0,0,.16-.2,.24-.97,0,0-1.03,.06-1.24,.52,0,0-.28,0-.28-.24s-.03-.72-.03-.72c0-.66,.06-.63,.23-.87,0,0,.54-.68,.18-1.29-.26-.44-1.24-.92-1.91-.8-.38,.07-.66,.46-.66,.46h0l-.23-.79,.77,.25v-.92l-.76,.26,.23-.81h-.85l.23,.81-.78-.26v.92l.78-.25-.23,.79h0s-.29-.4-.66-.46c-.67-.12-1.64,.35-1.9,.8-.37,.62,.17,1.29,.17,1.29,.17,.24,.23,.19,.23,.85,0,0-.02,.5-.02,.74s-.28,.24-.28,.24c-.21-.46-1.24-.53-1.24-.53,.07,.77,.24,.97,.24,.97l.05,.1c-1.37,.44-1.86,.96-1.39,1.52,.4,.48,.81,1.13,.81,1.13,.18,.18,.39,.19,.39,.19-.58,.74-.58,1.47-.58,1.47,.51-.36,.87-.2,.87-.2h.05c-.07,.24-.05,.44-.05,.44-.14-.02-.26,.12-.26,.12,0,0-.13,.12-.21,.57,0,0-.09,.53-.35,.9l-.02,.02c-.16,.33-.44,.39-.44,.39,.19,.88,1.1,.88,1.1,.88,.33,.31-.21,1.31-.21,1.31,.81,.46,1.16,.1,1.16,.1,1.07,.44,.85,2.12,.85,2.12,.67-.46,1-.52,1-.52,.25,.57-.02,2.5-.56,3.48-.51,.92-1.28,1.3-1.28,1.3-.43-.42-.92-.28-.92-.28-.28,.05-.44,.21-.54,.38,0,0-1.07,.03-1.17,.97,0,0,.4-.2,1.12,.04,0,0,.05,.03,.1,.05,.02,.02,.05,.04,.08,.07-.03,.04-.06,.12-.1,.2l-.07,.02s-.96,.46-.67,1.36c0,0,.29-.36,1.03-.43,.14,.12,.28,.15,.37,.15-.22,.24-.66,.82-.25,1.44,0,0,.19-.42,.9-.67,0,0,.08,0,.14-.02,.09,0,.18,.03,.29,.03,.54,.02,1.11-.77,1.11-.77,.21-.25,.69-.34,1-.37-.1,.2-.14,.44-.06,.74,0,0,.3-.34,1.05-.4h.23s0,.04,0,.06c-.02,.04-.05,.08-.05,.08,0,0-.51,.93,.25,1.49,0,0,.03-.45,.6-.94,0,0,.06-.05,.12-.08,.38-.06,.5-.3,.5-.3,0,.02,.02,.03,.02,.05-.01,.04-.03,.07-.03,.07,0,0-.43,.99,.37,1.47,0,0,0-.44,.5-.97h.1c.58-.04,.73-.35,.79-.58,.05-.23,.32-.29,.32-.29,.71-.1,.68-.28,.77-.47,.06-.13,.1-.92,.1-.92,.25-1.1,1.02-2.17,1.02-2.17-.3,.09-.87-.12-.87-.12,.11-.03,.24-.12,.33-.24,.14-.2,.45-.18,.45-.18-.09-.13-.55-.5-.55-.5-1.12-.68-.52-1.76-.52-1.76,2.64,.16,3.63-.94,3.63-.94l.49,.59c-.6,1.53,.62,2.31,.62,2.31-.11-.7,.41-.9,.41-.9,.2,.57,1.4,1.03,1.4,1.03,.37,.19,.65,.44,.51,.98-.24,.95-1,.91-1,.91,0,0-.49,.05-.72-.11-.41-.29-.72-.31-.72-.31-.13,0-.23,.02-.33,.06-.06-.02-.1-.04-.1-.04,0,0-1.02-.31-1.42,.53,0,0,.41-.04,.97,.36-.27,.01-.54,.11-.7,.35h-.02s-1.06,.11-1.09,1.06c0,0,.39-.24,1.12-.05l.05,.02c.21,.24,.51,.28,.51,.28,0,0,0,.02,0,.02-.07,.03-.15,.1-.15,.1,0,0-.85,.64-.39,1.46,0,0,.21-.39,.94-.61h.05c.14,.05,.26,.05,.26,.05,.43,.1,1.03-.54,1.03-.54,.26,.46,.36,.44,.36,.44,.37,.27,.84-.34,.84-.34,.13-.15,.47-.54,.73-.74,.89-.67,1.27-.34,1.27-.34,.31,.08,.49,.46,.49,.46,.54-.33,.38-1.54,.38-1.54,.33,.11,.82,.49,.82,.49-.02-.41-.02-.71-.43-1.33-.4-.6,.13-1.34,.13-1.34-.27-.1-.35-.13-.74-.36-.39-.23-.28-.99-.28-.99,.35-.18,.57-.35,.57-.35,.58,1.55,1.21,1.63,1.21,1.63,.03-.25,.03-.81,.2-.86,.17-.05,2.82,1.21,2.82,1.21,.44,.16,.4,.78,.4,.78,0,.51-.44,.54-.44,.54-.4-.69-.99-.65-1.35-.4l-.09-.02s-1.06-.11-1.29,.81c0,0,.43-.15,1.1,.19,0,0,.02,0,.03,0-.12,.03-.37,.29-.37,.29h-.06s-1.05,.17-1.03,1.11c0,0,.38-.25,1.12-.11h.02c.2,.23,.48,.31,.52,.33-.09,.1-.66,.83-.1,1.5,0,0,.14-.44,.81-.78h.03c.21,.05,.42,.03,.57-.02,.4-.13,.53-.31,1.23-.31,1.23,0,1.38-.46,1.36-1.34-.01-.83,1.48-1.23,1.48-1.23-.18-.13-.74-.56-.8-.93Zm-26.33,1.49c-.44-.12-.7-.07-.7-.07,.23-.35,.68-.37,.68-.37h.01c-.05,.26,.01,.44,.01,.44h0Zm-.39,1.55s0-.04,0-.04c.07-.41,.46-.6,.46-.6,.05,.29,.17,.41,.17,.41-.43,.09-.63,.23-.63,.23Zm12.15-.63c.18-.29,.49-.37,.6-.39-.02,.08-.02,.16-.02,.22,0,.12,.03,.2,.03,.2-.33-.04-.52-.04-.61-.03Zm8.68,.11c.18-.37,.6-.44,.62-.44-.03,.13-.03,.26,.01,.42-.42-.03-.63,.02-.63,.02Zm-14.23-21.12c.87,.26,1.03,.64,1.03,.86s-.19,.4-.19,.4c-.34-.73-.91-.99-1.89-.91,0-.06,.23-.6,1.05-.35Zm-3.73,2.95c.16-.08,1.38,.01,1.47,.01s.27,.04,.27,.27c0,.28-.13,.33-.27,.36-.14,.03-1.39,.03-1.5-.07-.11-.1-.12-.5,.03-.57Zm-.11-1.04s.58-.01,.58,.61c0,0-.48,.02-.56-.06-.09-.09-.01-.54-.01-.54Zm2.13-1.32h0Zm0-.48h0Zm.55,2.85c.09,0,1.31-.09,1.47-.01,.15,.07,.14,.47,.02,.57-.11,.1-1.36,.1-1.5,.07-.14-.03-.27-.08-.27-.36,0-.23,.18-.27,.27-.27Zm1.57-.5c-.09,.09-.56,.06-.56,.06,0-.62,.57-.61,.57-.61,0,0,.07,.46-.01,.54Zm-1.2-1.74c.81,0,1.45,.75,1.13,.75-.63,0-.94,.5-.94,1.05h-.73l-.19-.64,.71,.23v-.86l-.71,.24,.2-.7c.13-.04,.29-.08,.53-.08Zm-1.3,.08l.2,.7-.72-.24v.86l.72-.23-.19,.64h-.73c0-.55-.3-1.05-.93-1.05-.32,0,.31-.75,1.13-.75,.24,0,.39,.04,.52,.08Zm-2.35,.07c0-.22,.16-.6,1.03-.86,.82-.25,1.05,.29,1.05,.35-.98-.08-1.55,.18-1.89,.91,0,0-.19-.19-.19-.4Zm-1.16,5.37c-.4-.1-.81-1.14-.81-1.14,.29-.35,.97-.51,.97-.51,0,0,.92-.09,1-.5,0,0,.02-.1,.03-.22,0,0,.1,.15,2.7,.15s2.71-.16,2.71-.16v.06c.04,.53,1.29,.67,1.29,.67,.41,.06,.64,.45,.64,.45,.07,.2-.18,.36-.88,1.13-.19,.21-.76,.13-.96,.17-.01,.02-.03,.05-.04,.07,.07,.14,.31,.56,.44,.96,0,0-.15,0-.32,.09-.18,.09-.29,.35-.29,.35,.26,.59,.3,.75,.3,.75-.33-.02-.53,.15-.53,.15,.36,.76,0,1.35,0,1.35-.21-.17-.54-.21-.77-.23l-.24,.03c-.03,1.15-.42,1.15-.42,1.15-.39-.52-1.25,.06-1.25,.06-.48-.18-.77-1.09-.77-1.09-.42,.08-.63,.39-.63,.39-.41-.74-.41-1.42-.41-1.42-.37,.04-.68,.4-.68,.4-.66-.7,.13-1.87,.13-1.87-.2,.04-.49,.04-.49,.04-.37-.1-.47-.04-.5,0,.1-.28,.62-1.01,.62-1.01-.11-.02-.86-.28-.86-.28Zm2.35,7.75s-.06-1.1-1.18-1.71c0,0-.13,.17-.73,.09,.26-.49,.09-1.47,.09-1.47,0,0-.73,.23-.85-.3,0,0,.51-.45,.63-1.28,0,0,.19,.86,.81,1.07,0,0,0-.24,.24-.4,0,0,.18,1.1,.98,1.57,0,0,.07-.58,.23-.71,0,0,.78,.96,.82,1.11,0,0,1.13-.95,1.38-.06,0,0,.96-.42,.96-1.34,0,0,.44,.08,.48,.57,0,0,.9-.45,.92-1.77,0,0,0,0-.02-.25,0,0,.07-.04,.29,.05,.06,.02,.26-.27-.07-1.09l-.03-.09s.19-.21,.64-.04c0,0,.06-.33-.39-1.11,0,0,.15,.04,.48-.15l.14,.18s.17,.32,.48,.45c.09,.04,.24,.11,.24,.11-.34,.29-.46,.79-.46,.79-.34,1,.13,1.44,.13,1.44,0,0-.54,.33-.15,1.44,0,0-.75,.07-1.16,.45,0,0,.09,.69,.08,.9,0,0-.07,.5-.46,1.13,0,0-.83-.81-1.47-.77,.08,.36,.36,1.7-.79,2.18-.82-.95-.64-1.26-.64-1.32,0-.09-.16,.05-.56,.34,0,0-.16-.45-.28-.59,0,0-.3,.36-.75,.57Zm-2.3,8.76v-.02c-.05-.41,.3-.7,.3-.7,.05,.21,.25,.36,.25,.36-.4,.2-.55,.36-.55,.36Zm2.64-1.86s-.5,.17-.71,.52c0,0-.74,.92-1.06,.52-.26-.33,.04-.64,.32-.74,0,0-.12-.26-.68,.01,0,0-.23,.15-.44,0,0,0-.13-.13-.07-.4,0,0,.03-.2,.33-.24,0,0,.23-.05,.57,.07,0,0-.29-.37-.68-.42,0,0-.32-.01-.35-.27,0,0-.12-.2,.1-.37,0,0,.16-.21,.58,.07,0,0,.19,.15,.37,.33,0,0,1.21-.67,1.59-1.28,0,0,.89-1.11,1-3.38,0,0,0-.7-.08-.86,0,0,.38,.56,1.02,1.33,0,0,.55-.4,.55-.4,.39,.36,.74,1.05,.74,1.05,0,0-.27,.41-.53,.84,0,0-.14-.13-.25-.28,0,0-.94,1.36-.45,1.79,0,0-.4,.04-1.43,.66,0,0-.92,.7-.44,1.43Zm.88,.83s0-.03,0-.04c.11-.37,.42-.51,.49-.55h.02c.02,.08,0,.17,.03,.22,.02,.05,.04,.09,.06,.12l.04,.07c-.43,.08-.65,.18-.65,.18Zm.55-1.05s0,.09-.01,.12c-.47,.17-.6,.41-.61,.39-1.47-1.31,1.64-2.03,1.77-2.05-.59-.71-.08-1.23-.08-1.23,.33,.34,.61,.24,.61,.24-.25-.8,.29-1.07,.29-1.07,.09,.24,.46,.86,.6,2.05,.15,1.19-.99,1.05-.99,1.05-1.24-.79-1.58,.5-1.58,.5Zm.63,2.24s-.02-.02-.02-.02c-.19-.38,.02-.74,.02-.74,.06,.05,.1,.09,.16,.13,.02,0,.03,.02,.05,.03,.08,.03,.15,.06,.15,.06h.02c-.3,.34-.38,.54-.38,.54Zm1.54,.26h-.01c-.21-.35-.03-.75-.03-.75,.01,0,.03,0,.04,.02,0,0,0,0,0,.02,.1,.1,.21,.16,.3,.19-.22,.3-.3,.49-.3,.52Zm6.68-9.02c.41-.3,1.03-.68,1.7-.75,0,0,1.1-.07,1.67,.39,0,0-1.31-.18-2.91,.94l-.46-.58Zm-.9,5.28c.23-.17,.5-.16,.65-.14,.07,0,.12,.02,.12,.02-.05,.08-.09,.14-.12,.2-.03,.09-.05,.15-.05,.18,0,0,0,.02,0,.02-.38-.23-.59-.28-.59-.28Zm.51,2.98c-.29,.13-.45,.24-.52,.29,0-.33,.23-.55,.31-.62,.03,.07,.06,.13,.09,.17,0,0,0,0,0,.02l.11,.14h0Zm5.31-4.18s-.16,.79,.12,1.25c0,0-.38-.12-.69-.13,0,0,.29,.53,.29,1.16,0,0-.27-.19-.71-.22,0,0-.77,.3-1.29,.68,0,0-.3,.12-.77,.9,0,0-.05-.42-.6-.6,0,0-.31,.57-.82,.79,0,0-.5,.18-.46-.16,0,0-.01-.33,.53-.61,0,0-.82-.08-1-.2,0,0-.26-.09-.19-.37,0,0,.29-.6,1.48-.06,0,0,.05-.29-.6-.59,0,0-.07-.6,.34-.45,0,0,.44,.31,.96,.38,.52,.07,.64,.05,.64,.05,.85,0,1.12-.64,1.12-.64,.5-.71,.33-1.37,.33-1.37-.07-.69-.95-1.09-.95-1.09-1.3-.27-1.06-1.25-1.85-.87-.16,.08-.38,.23-.38,.23,0,0-.27-.57,.2-1.04,1.55-1.17,2.81-.87,2.81-.87,0,0,.39,.13,.46,.29,0,0,.32,.2-.4,2.18,0,0,.24,.09,.6-.03,0,0-.11,.98,.79,1.39Zm3.05,1.2c-.02,.05-.02,.09-.03,.13,0,0,0,.02,0,.03-.01,.03-.01,.07-.01,.1,0,.04,0,.05,0,.08v.03c-.41-.15-.63-.16-.63-.16,.27-.31,.7-.27,.72-.27-.01,.02-.03,.05-.04,.07Zm.14,3.3c-.08-.38,.16-.67,.2-.72,.02,.03,.04,.06,.05,.08,.07,.1,.16,.17,.24,.23-.36,.24-.49,.41-.49,.41Zm.16-1.51l-.09-.05c-.17-.13-.17-.3-.17-.3,0-.23,.29-.29,.29-.29,.17-.05,.43,.14,.43,.14-.29,.05-.45,.5-.45,.5Zm3.14-.64s-.01,.63-.05,.71c-.04,.08-.17,.15-.41,.16-.24,0-.86,0-1.27,.18-.4,.19-.59,.3-.81,0,0,0-.1-.19,.08-.4,.16-.16,.55-.36,1.03,0,0,0-.08-.52-.81-.59,0,0-.09-.33-.52-.52,0,0-.14-.06-.18-.23,0,0-.06-.2,.06-.29,.12-.09,.24-.11,.31-.06,.07,.06,.27,.29,.37,.36,0,0,.3,.3,.48,.28,.42-.06,.7-.22,.9-.7,0,0,.23-.64-.04-1.24,0,0-.12-.43-.67-.65,0,0-1.97-.72-2.47-.99,0,0-1.17-.61-1.15,.29,0,0-.43-1.04-.47-1.76,0,0-.96,.67-1.26,.81,0,0,.35-.81-.14-1.8,0,0-.68-1.82-3.5-1.67,0,0,.34,.29,.41,.42,0,0-.8,0-1.57,.65,0,0,.13-.81-.56-1.27,0,0,.61,2.02-1.33,2.46,0,0,.59-1.2-.15-2.01,0,0,.62,2.16-1.7,2.14,0,0,.02-.66,.47-1.55,0,0-.75,.59-1.11,1.58,0,0-.49,1.1-.25,1.74,0,0,.17,.66,.67,1.04,0,0-.14,.28-.47,.27,0,0-.07,.68,.89,.83,0,0-.74,1.15-.81,1.74-.07,.48-.05,.6-.32,.7,0,0-.52,.07-.72,.43,0,0-.08,.44-.37,.46,0,0-.53,0-.41-.47,0,0,.14-.39,.36-.42,0,0-.25-.1-.52,.03-.27,.14-.27,.4-.41,.46,0,0-.27,.27-.67,.17,0,0-.19-.03-.18-.28,0,0,.02-.37,.31-.37,0,0-.09-.2-.4-.07,0,0-.33,.15-.42-.07-.06-.15,.16-.85,.77-.43,0,0,.29,.15,.77,.08,0,0,.75,0,1.12-.9,0,0,.26-.58-.34-2.29,0,0-.55-1.78-1.39-2.56,0,0,.57-.4,.41-1.41,0,0,.55,.19,1.13,.93,0,0,.17-.42,.34-.69,0,0,.58-.82,.45-1.5,0,0,0-.17-.05-.28,0,0,.13-.28,1.01-.2,0,0,.33,.05,.63,.27,0,0-.28-.6-.58-1.11,0,0-.2-.37-.03-.73,0,0,.07-.33,.63-.28,0,0-.46-.45-.55-.83,0,0-.09-.34-.01-.54,0,0,.77,.81,1.92,1.08l.33,.07s2.33,.3,3.76,0c0,0,1.27-.43,2.27-.31,1.16,.15,1.7,.51,1.86,.56,.16,.05,1.26,.35,2.24,.2,0,0,1.58,.03,1.67-1.58,.07-1.15-.85-1.84-1.58-1.8,0,0-.82-.13-1.26,.72,0,0-.37-.63-1.07-.63-.59,0-.83,.65-.83,.65-.21-.14-.88-.64-1.5,.01,0,0-.08-.44-.08-.52,0,0-.62,.03-1.58-.04-1.59-.12-3.83-.56-3.83-2.47,0-1.21,.93-1.57,1.58-1.79,.65-.2,1.01-.45,1.06-.5,0,0,.62-.42,.54-1.07,0,0,.34,.18,.47,.96,0,0,.89-.6,1.81-.37,.93,.22,.74,.3,1.31,.33-.24,.48-.37,.64,.19,.73,1.23,.18,1.44,.06,1.44,.06-.28,.27-.67,.42-.67,.42-1.21,.6-2.86-.51-2.86-.51,.12,.16,0,.88,0,.88-1.53-.58-4.03-.23-4.03,.86,0,1.7,3.58,1.84,5.03,1.91,0,0-.04-.77,.05-1.08,0,0,.1,.48,.58,.64,0,0,.22,.17,1.05,.22,0,0-.22-.66,.16-1.11,0-.04,.17,.88,.92,1,0,0,.72,.09,1.1,.07,.36-.02,.82,0,1.09,.1,.27,.11,1.51,.46,1.56,2.27,0,0,.02,2.07-2.01,2.35,0,0-.9-.1-1.24,.47-.23,.4-.2,.5-.28,.85,0,0,.4-.56,.67-.63,.22-.06,.46,0,.7,.48,0,0,.33,.15,.23,1.43,0,0-.11,.88,.15,1.56,0,0,.3,.96,1.89,1.49,0,0,.12-.61,.32-.83,0,0,.43,.63,.4,1.11,0,0,.53,.04,.82,0,0,0-.29,.49-.24,1.78,.02,.39,.17,.56,.28,.69,0,0-.9,.6-.94,1.26ZM7.98,47.19s.01-.27-.3-.38c0,0-.34-.11-.72,.02,0,0,.09-.1,.43-.19,0,0,.16-.04,.39,0,0,0,.27,0,.36,.26,0,0,.1,.18-.17,.29Zm3.82,0c.41,.34,1.03,.25,1.03,.25,.23-.03,.42-.17,.49-.44h0c0-.25,.44-.8,.44-.8,0,0-.02,.02-.09,.06-.46,.26-.78,.24-.78,.24-.38,.02-.59,.04-.59,.04-.37,.02-.5,.21-.5,.21-.16,.18-.22,.55-.22,.55,0,0,.04-.05,.09-.11,.06-.07,.12,0,.12,0Zm-.95,.84s-.56,.76,.33,.76h.02c.88,0,.32-.76,.32-.76,0,0,1.09,.83,.32,1.09h.07c1.3,0,.71-1.24,.71-1.24,0,0,1,1.12,.13,1.58,.01,.01,.03,.02,.04,.02,.1,.06,.13,.18,.07,.29-.08,.13-1.43,1.42-1.43,1.42-.12,.24-.35,.24-.47,0,0,0-1.35-1.28-1.43-1.42-.06-.1-.02-.22,.07-.29,.01,0,.03,0,.04-.02-.87-.46,.13-1.58,.13-1.58,0,0-.58,1.24,.72,1.24h.06c-.77-.26,.31-1.09,.31-1.09Zm.9,2.31s.76-.76,.77-.79h0c-.11,.04-.33,.09-.5,.11,0,0-.1,.28-.28,.68Zm-1.13,0c-.18-.4-.28-.68-.28-.68-.16-.02-.38-.07-.5-.11h0s.78,.79,.78,.79Zm.05-.68s.18,.93,.51,.93c.35,0,.52-.93,.52-.93h-.1c-.1,0-.19-.04-.26-.09h-.3c-.07,.06-.17,.09-.26,.09h-.1Zm-1.12-2.25s.62,.19,.72-.32h0c.02-.06,.07-.1,.13-.1,.04,0,.07,.02,.1,.04h0c.06,.05,.15,.12,.27,.27,0,0-.06-.37-.22-.55,0,0-.15-.21-.51-.21,0,0-.48,.04-.81,0,0,0-.23,.04-.56-.28-.06-.05-.09-.06-.09-.06,0,0,.49,1.13,.96,1.21Zm4.82-.22s-.02-.3,.3-.41c0,0,.33-.17,.7-.04,0,0-.03-.09-.37-.19,0,0-.3-.04-.53,.03,0,0-.23,.05-.28,.32,0,0-.09,.18,.17,.29Z"/>
    <g>
      <path class="cls-5" d="M39.14,51.21l-1.62-5.43s2.48,3.07,2.59,3.22c.2,.27,.48,.14,.48-.13,0-.24-.29-3.93-.31-4.39,0,0,1.82,4.04,1.93,4.28,.12,.28,.43,.26,.48-.05,.06-.36,.77-4.6,.77-4.6,0,0,.71,4.24,.77,4.6,.06,.31,.37,.33,.48,.05,.1-.24,1.93-4.28,1.93-4.28-.02,.46-.3,4.16-.31,4.39,0,.27,.28,.4,.48,.13,.11-.15,2.59-3.22,2.59-3.22l-1.62,5.43h-8.66Z"/>
      <g>
        <path class="cls-4" d="M44.28,53.74l.07-.07v-1.21l-.07-.06h-1.63l-.07,.06v1.21l.07,.07h1.62Zm-1.24-.92h.89v.52h-.89v-.52Z"/>
        <path class="cls-4" d="M46.25,53.76c.46,0,.74-.33,.74-.7s-.28-.69-.74-.69-.72,.32-.72,.69,.27,.7,.72,.7Zm.01-1.04c.2,0,.35,.16,.35,.34s-.15,.33-.35,.33-.35-.15-.35-.33,.16-.34,.35-.34Z"/>
        <path class="cls-4" d="M40.69,53.76c.45,0,.72-.33,.72-.7s-.27-.69-.72-.69-.74,.32-.74,.69,.28,.7,.74,.7Zm0-1.04c.19,0,.35,.16,.35,.34s-.16,.33-.35,.33-.35-.15-.35-.33,.15-.34,.35-.34Z"/>
        <path class="cls-4" d="M50.08,44.52c-.2-.07-.39,0-.51,.17l-2.56,3.17,.26-4.12c-.01-.38-.11-.48-.29-.53-.17-.05-.38,.03-.5,.3-.16,.36-1.88,4.14-1.88,4.14l-.73-4.52c-.11-.45-.24-.57-.41-.57s-.29,.12-.4,.57l-.73,4.52s-1.72-3.78-1.88-4.14c-.12-.27-.33-.35-.5-.3-.18,.05-.28,.15-.29,.53l.26,4.12-2.56-3.17c-.12-.17-.31-.24-.51-.17-.18,.06-.21,.3-.15,.5,.1,.32,1.78,6.19,1.78,6.19h-.36c-.19,0-.35,.17-.35,.35s.16,.34,.35,.34h.34v2.3h-.34c-.19,0-.35,.15-.35,.33s.16,.32,.35,.32h10.68c.19,0,.35-.14,.35-.32s-.16-.33-.35-.33h-.34v-2.3h.34c.19,0,.35-.15,.35-.34s-.16-.34-.35-.34h-.36s1.69-5.88,1.78-6.2c.06-.2,.03-.44-.15-.5Zm-2.21,9.68h-8.8v-2.3h8.81v2.3Zm-.09-2.98h-8.66l-1.62-5.43s2.48,3.07,2.59,3.22c.2,.27,.48,.14,.48-.13,0-.24-.29-3.93-.31-4.39,0,0,1.82,4.04,1.93,4.28,.12,.28,.43,.26,.48-.05,.06-.36,.77-4.6,.77-4.6,0,0,.71,4.24,.77,4.6,.06,.31,.37,.33,.48,.05,.1-.24,1.93-4.28,1.93-4.28-.02,.46-.3,4.16-.31,4.39,0,.27,.28,.4,.48,.13,.11-.15,2.59-3.22,2.59-3.22l-1.62,5.43Z"/>
      </g>
      <path class="cls-5" d="M44.28,53.74l.07-.07v-1.21l-.07-.06h-1.63l-.07,.06v1.21l.07,.07h1.62Zm-1.24-.92h.89v.52h-.89v-.52Zm3.22,.95c.46,0,.74-.33,.74-.7s-.28-.69-.74-.69-.72,.32-.72,.69,.27,.7,.72,.7Zm.01-1.04c.2,0,.35,.16,.35,.34s-.15,.33-.35,.33-.35-.15-.35-.33,.16-.34,.35-.34Zm-5.58,1.04c.45,0,.72-.33,.72-.7s-.27-.69-.72-.69-.74,.32-.74,.69,.28,.7,.74,.7Zm0-1.04c.19,0,.35,.16,.35,.34s-.16,.33-.35,.33-.35-.15-.35-.33,.15-.34,.35-.34Zm7.19,1.47h-8.8v-2.3h8.81v2.3Z"/>
    </g>
    <g>
      <path class="cls-5" d="M54.56,51.21l-1.62-5.43s2.48,3.07,2.59,3.22c.2,.27,.48,.14,.48-.13,0-.24-.29-3.93-.31-4.39,0,0,1.83,4.04,1.93,4.28,.12,.28,.43,.26,.48-.05,.06-.36,.77-4.6,.77-4.6,0,0,.71,4.24,.77,4.6,.05,.31,.37,.33,.48,.05,.1-.24,1.93-4.28,1.93-4.28-.02,.46-.3,4.16-.31,4.39,0,.27,.28,.4,.48,.13,.11-.15,2.59-3.22,2.59-3.22l-1.62,5.43h-8.66Z"/>
      <g>
        <path class="cls-4" d="M59.7,53.74l.07-.07v-1.21l-.07-.06h-1.63l-.07,.06v1.21l.07,.07h1.63Zm-1.24-.92h.89v.52h-.89v-.52Z"/>
        <path class="cls-4" d="M61.67,53.76c.46,0,.74-.33,.74-.7s-.28-.69-.74-.69-.72,.32-.72,.69,.27,.7,.72,.7Zm.01-1.04c.2,0,.35,.16,.35,.34s-.15,.33-.35,.33-.35-.15-.35-.33,.16-.34,.35-.34Z"/>
        <path class="cls-4" d="M56.1,53.76c.45,0,.72-.33,.72-.7s-.27-.69-.72-.69-.74,.32-.74,.69,.28,.7,.74,.7Zm0-1.04c.19,0,.35,.16,.35,.34s-.16,.33-.35,.33-.35-.15-.35-.33,.15-.34,.35-.34Z"/>
        <path class="cls-4" d="M65.5,44.52c-.2-.07-.39,0-.51,.17l-2.56,3.17,.26-4.12c-.01-.38-.11-.48-.29-.53-.17-.05-.38,.03-.5,.3-.16,.36-1.88,4.14-1.88,4.14l-.73-4.52c-.11-.45-.24-.57-.41-.57s-.29,.12-.4,.57l-.73,4.52s-1.72-3.78-1.88-4.14c-.12-.27-.33-.35-.5-.3-.18,.05-.28,.15-.29,.53l.26,4.12-2.56-3.17c-.12-.17-.31-.24-.51-.17-.18,.06-.21,.3-.15,.5,.1,.32,1.78,6.19,1.78,6.19h-.36c-.19,0-.35,.17-.35,.35s.16,.34,.35,.34h.34v2.3h-.34c-.19,0-.35,.15-.35,.33s.16,.32,.35,.32h10.68c.19,0,.35-.14,.35-.32s-.16-.33-.35-.33h-.34v-2.3h.34c.19,0,.35-.15,.35-.34s-.16-.34-.35-.34h-.36s1.69-5.88,1.78-6.2c.06-.2,.03-.44-.15-.5Zm-2.21,9.68h-8.8v-2.3h8.81v2.3Zm-.09-2.98h-8.66l-1.62-5.43s2.48,3.07,2.59,3.22c.2,.27,.48,.14,.48-.13,0-.24-.29-3.93-.31-4.39,0,0,1.83,4.04,1.93,4.28,.12,.28,.43,.26,.48-.05,.06-.36,.77-4.6,.77-4.6,0,0,.71,4.24,.77,4.6,.05,.31,.37,.33,.48,.05,.1-.24,1.93-4.28,1.93-4.28-.02,.46-.3,4.16-.31,4.39,0,.27,.28,.4,.48,.13,.11-.15,2.59-3.22,2.59-3.22l-1.62,5.43Z"/>
      </g>
      <path class="cls-5" d="M59.7,53.74l.07-.07v-1.21l-.07-.06h-1.63l-.07,.06v1.21l.07,.07h1.63Zm-1.24-.92h.89v.52h-.89v-.52Zm3.22,.95c.46,0,.74-.33,.74-.7s-.28-.69-.74-.69-.72,.32-.72,.69,.27,.7,.72,.7Zm.01-1.04c.2,0,.35,.16,.35,.34s-.15,.33-.35,.33-.35-.15-.35-.33,.16-.34,.35-.34Zm-5.58,1.04c.45,0,.72-.33,.72-.7s-.27-.69-.72-.69-.74,.32-.74,.69,.28,.7,.74,.7Zm0-1.04c.19,0,.35,.16,.35,.34s-.16,.33-.35,.33-.35-.15-.35-.33,.15-.34,.35-.34Zm7.19,1.47h-8.8v-2.3h8.81v2.3Z"/>
    </g>
    <g>
      <path class="cls-5" d="M46.84,63.89l-1.62-5.43s2.48,3.07,2.59,3.22c.2,.27,.48,.14,.48-.13,0-.24-.29-3.93-.31-4.39,0,0,1.83,4.04,1.93,4.28,.12,.28,.43,.26,.48-.05,.06-.36,.77-4.6,.77-4.6,0,0,.71,4.24,.77,4.6,.05,.31,.37,.33,.48,.05,.1-.24,1.93-4.28,1.93-4.28-.02,.46-.3,4.16-.31,4.39,0,.27,.28,.4,.48,.13,.11-.15,2.59-3.22,2.59-3.22l-1.62,5.43h-8.66Z"/>
      <g>
        <path class="cls-4" d="M51.98,66.41l.07-.07v-1.21l-.07-.06h-1.63l-.07,.06v1.21l.07,.07h1.63Zm-1.24-.92h.89v.52h-.89v-.52Z"/>
        <path class="cls-4" d="M53.96,66.43c.46,0,.74-.32,.74-.7s-.28-.69-.74-.69-.72,.32-.72,.69,.28,.7,.72,.7Zm.01-1.04c.2,0,.35,.15,.35,.34s-.15,.33-.35,.33-.35-.15-.35-.33,.16-.34,.35-.34Z"/>
        <path class="cls-4" d="M48.39,66.43c.45,0,.72-.32,.72-.7s-.27-.69-.72-.69-.74,.32-.74,.69,.28,.7,.74,.7Zm0-1.04c.19,0,.35,.15,.35,.34s-.16,.33-.35,.33c-.2,0-.35-.15-.35-.33s.15-.34,.35-.34Z"/>
        <path class="cls-4" d="M57.79,57.19c-.2-.07-.39,0-.51,.17l-2.56,3.17,.26-4.12c-.01-.38-.11-.48-.29-.53-.17-.05-.38,.03-.5,.3-.16,.36-1.88,4.14-1.88,4.14l-.73-4.52c-.11-.45-.24-.57-.41-.57s-.29,.12-.4,.57l-.73,4.52s-1.72-3.78-1.88-4.14c-.12-.27-.33-.35-.5-.3-.18,.05-.28,.15-.29,.53l.26,4.12-2.56-3.17c-.12-.17-.31-.24-.51-.17-.18,.06-.21,.3-.15,.5,.1,.32,1.78,6.19,1.78,6.19h-.36c-.19,0-.35,.17-.35,.35s.16,.34,.35,.34h.34v2.3h-.34c-.19,0-.35,.15-.35,.33s.16,.32,.35,.32h10.68c.19,0,.35-.14,.35-.32s-.16-.33-.35-.33h-.34v-2.3h.34c.19,0,.35-.15,.35-.34s-.16-.34-.35-.34h-.36s1.69-5.88,1.78-6.2c.06-.2,.03-.44-.15-.5Zm-2.21,9.67h-8.8v-2.3h8.81v2.3Zm-.09-2.98h-8.66l-1.62-5.43s2.48,3.07,2.59,3.22c.2,.27,.48,.14,.48-.13,0-.24-.29-3.93-.31-4.39,0,0,1.83,4.04,1.93,4.28,.12,.28,.43,.26,.48-.05,.06-.36,.77-4.6,.77-4.6,0,0,.71,4.24,.77,4.6,.05,.31,.37,.33,.48,.05,.1-.24,1.93-4.28,1.93-4.28-.02,.46-.3,4.16-.31,4.39,0,.27,.28,.4,.48,.13,.11-.15,2.59-3.22,2.59-3.22l-1.62,5.43Z"/>
      </g>
      <path class="cls-5" d="M51.98,66.41l.07-.07v-1.21l-.07-.06h-1.63l-.07,.06v1.21l.07,.07h1.63Zm-1.24-.92h.89v.52h-.89v-.52Zm3.22,.95c.46,0,.74-.32,.74-.7s-.28-.69-.74-.69-.72,.32-.72,.69,.28,.7,.72,.7Zm.01-1.04c.2,0,.35,.15,.35,.34s-.15,.33-.35,.33-.35-.15-.35-.33,.16-.34,.35-.34Zm-5.58,1.04c.45,0,.72-.32,.72-.7s-.27-.69-.72-.69-.74,.32-.74,.69,.28,.7,.74,.7Zm0-1.04c.19,0,.35,.15,.35,.34s-.16,.33-.35,.33c-.2,0-.35-.15-.35-.33s.15-.34,.35-.34Zm7.19,1.47h-8.8v-2.3h8.81v2.3Z"/>
    </g>
  </g>
  <g>
    <path class="cls-4" d="M1.75,107.94v-6.31h1.22v6.23c0,2.34,1.26,3.66,3.32,3.66s3.27-1.21,3.27-3.58v-6.31h1.22v6.22c0,3.16-1.81,4.81-4.53,4.81s-4.51-1.64-4.51-4.71Z"/>
    <path class="cls-4" d="M13.48,104.47h1.19v1.39c.53-.87,1.36-1.57,2.74-1.57,1.94,0,3.07,1.3,3.07,3.21v4.98h-1.19v-4.68c0-1.49-.81-2.42-2.22-2.42s-2.4,1.01-2.4,2.51v4.59h-1.19v-8.01Z"/>
    <path class="cls-4" d="M23.06,101.39h1.36v1.32h-1.36v-1.32Zm.08,3.07h1.19v8.01h-1.19v-8.01Z"/>
    <path class="cls-4" d="M26.31,104.47h1.32l2.7,6.65,2.71-6.65h1.29l-3.49,8.08h-1.05l-3.47-8.08Z"/>
    <path class="cls-4" d="M35.24,108.5v-.03c0-2.31,1.63-4.17,3.84-4.17,2.37,0,3.74,1.89,3.74,4.23,0,.16,0,.25-.02,.39h-6.36c.17,1.74,1.4,2.71,2.82,2.71,1.1,0,1.88-.45,2.53-1.13l.74,.67c-.81,.9-1.78,1.5-3.3,1.5-2.2,0-4-1.69-4-4.17Zm6.37-.46c-.12-1.46-.96-2.73-2.56-2.73-1.4,0-2.45,1.16-2.6,2.73h5.16Z"/>
    <path class="cls-4" d="M44.91,104.47h1.19v2.09c.59-1.33,1.75-2.29,3.27-2.23v1.29h-.09c-1.75,0-3.18,1.26-3.18,3.67v3.19h-1.19v-8.01Z"/>
    <path class="cls-4" d="M50.52,111.46l.6-.85c.87,.65,1.83,1.02,2.77,1.02s1.66-.5,1.66-1.27v-.03c0-.81-.95-1.12-2-1.41-1.26-.36-2.65-.79-2.65-2.26v-.03c0-1.38,1.15-2.29,2.73-2.29,.98,0,2.06,.34,2.88,.88l-.54,.9c-.74-.48-1.6-.77-2.37-.77-.95,0-1.55,.5-1.55,1.16v.03c0,.76,.99,1.05,2.06,1.38,1.24,.37,2.57,.85,2.57,2.29v.03c0,1.52-1.26,2.4-2.85,2.4-1.15,0-2.42-.45-3.32-1.18Z"/>
    <path class="cls-4" d="M58.94,101.39h1.36v1.32h-1.36v-1.32Zm.08,3.07h1.19v8.01h-1.19v-8.01Z"/>
    <path class="cls-4" d="M63.4,110.36v-4.84h-1.12v-1.05h1.12v-2.42h1.19v2.42h2.54v1.05h-2.54v4.68c0,.98,.54,1.33,1.35,1.33,.4,0,.74-.08,1.16-.28v1.02c-.42,.22-.87,.34-1.44,.34-1.29,0-2.26-.64-2.26-2.26Z"/>
    <path class="cls-4" d="M75.25,104.47h1.27l-3.36,8.28c-.68,1.66-1.46,2.26-2.67,2.26-.67,0-1.16-.14-1.71-.4l.4-.95c.39,.2,.74,.29,1.26,.29,.71,0,1.16-.37,1.64-1.5l-3.64-7.98h1.32l2.91,6.68,2.57-6.68Z"/>
    <path class="cls-4" d="M82.78,107.09v-.03c0-3.07,2.29-5.61,5.49-5.61,1.97,0,3.15,.7,4.23,1.72l-.84,.9c-.91-.87-1.94-1.49-3.41-1.49-2.4,0-4.2,1.95-4.2,4.45v.03c0,2.51,1.81,4.48,4.2,4.48,1.49,0,2.46-.57,3.5-1.57l.81,.79c-1.13,1.15-2.37,1.91-4.34,1.91-3.13,0-5.44-2.46-5.44-5.58Z"/>
    <path class="cls-4" d="M93.84,108.51v-.03c0-2.26,1.77-4.19,4.19-4.19s4.17,1.89,4.17,4.15v.03c0,2.26-1.78,4.19-4.2,4.19s-4.16-1.89-4.16-4.15Zm7.13,0v-.03c0-1.72-1.29-3.13-2.98-3.13s-2.93,1.41-2.93,3.1v.03c0,1.72,1.27,3.12,2.96,3.12s2.95-1.4,2.95-3.08Z"/>
    <path class="cls-4" d="M104.46,101.16h1.19v11.32h-1.19v-11.32Z"/>
    <path class="cls-4" d="M108.54,101.16h1.19v11.32h-1.19v-11.32Z"/>
    <path class="cls-4" d="M112.01,108.5v-.03c0-2.31,1.63-4.17,3.84-4.17,2.37,0,3.74,1.89,3.74,4.23,0,.16,0,.25-.02,.39h-6.36c.17,1.74,1.4,2.71,2.82,2.71,1.1,0,1.88-.45,2.53-1.13l.74,.67c-.81,.9-1.78,1.5-3.3,1.5-2.2,0-4-1.69-4-4.17Zm6.37-.46c-.12-1.46-.96-2.73-2.56-2.73-1.4,0-2.45,1.16-2.61,2.73h5.16Z"/>
    <path class="cls-4" d="M121.59,113.88l.54-.93c.91,.67,1.94,1.02,3.08,1.02,1.77,0,2.91-.98,2.91-2.85v-.95c-.7,.93-1.67,1.69-3.15,1.69-1.92,0-3.77-1.44-3.77-3.75v-.03c0-2.34,1.86-3.78,3.77-3.78,1.5,0,2.48,.74,3.13,1.61v-1.44h1.19v6.62c0,1.24-.37,2.19-1.02,2.84-.71,.71-1.78,1.07-3.05,1.07-1.33,0-2.57-.37-3.64-1.12Zm6.57-5.78v-.03c0-1.64-1.43-2.71-2.95-2.71s-2.78,1.05-2.78,2.7v.03c0,1.61,1.29,2.73,2.78,2.73s2.95-1.1,2.95-2.71Z"/>
    <path class="cls-4" d="M131.48,108.5v-.03c0-2.31,1.63-4.17,3.84-4.17,2.37,0,3.74,1.89,3.74,4.23,0,.16,0,.25-.02,.39h-6.36c.17,1.74,1.39,2.71,2.82,2.71,1.1,0,1.88-.45,2.53-1.13l.74,.67c-.81,.9-1.78,1.5-3.3,1.5-2.2,0-4-1.69-4-4.17Zm6.37-.46c-.12-1.46-.96-2.73-2.56-2.73-1.39,0-2.45,1.16-2.6,2.73h5.16Z"/>
    <path class="cls-4" d="M145.52,107.09v-.03c0-3.07,2.29-5.61,5.49-5.61,1.97,0,3.15,.7,4.23,1.72l-.84,.9c-.92-.87-1.94-1.49-3.41-1.49-2.4,0-4.2,1.95-4.2,4.45v.03c0,2.51,1.81,4.48,4.2,4.48,1.49,0,2.46-.57,3.5-1.57l.81,.79c-1.13,1.15-2.37,1.91-4.34,1.91-3.13,0-5.44-2.46-5.44-5.58Z"/>
    <path class="cls-4" d="M156.59,108.51v-.03c0-2.26,1.77-4.19,4.19-4.19s4.17,1.89,4.17,4.15v.03c0,2.26-1.78,4.19-4.2,4.19s-4.16-1.89-4.16-4.15Zm7.13,0v-.03c0-1.72-1.29-3.13-2.98-3.13s-2.93,1.41-2.93,3.1v.03c0,1.72,1.27,3.12,2.96,3.12s2.95-1.4,2.95-3.08Z"/>
    <path class="cls-4" d="M167.1,104.47h1.19v2.09c.59-1.33,1.75-2.29,3.27-2.23v1.29h-.09c-1.75,0-3.18,1.26-3.18,3.67v3.19h-1.19v-8.01Z"/>
    <path class="cls-4" d="M173.37,101.16h1.19v7.81l4.33-4.51h1.49l-3.36,3.44,3.47,4.57h-1.43l-2.87-3.74-1.63,1.64v2.09h-1.19v-11.32Z"/>
    <path class="cls-4" d="M181.57,113.83c.78-.28,1.1-.68,1.04-1.35h-.56v-1.63h1.43v1.4c0,1.26-.54,1.86-1.72,2.12l-.19-.54Z"/>
    <path class="cls-4" d="M190.95,101.63h1.22v10.85h-1.22v-10.85Z"/>
    <path class="cls-4" d="M195.15,104.47h1.19v2.09c.59-1.33,1.75-2.29,3.27-2.23v1.29h-.09c-1.75,0-3.18,1.26-3.18,3.67v3.19h-1.19v-8.01Z"/>
    <path class="cls-4" d="M200.59,108.5v-.03c0-2.31,1.63-4.17,3.84-4.17,2.37,0,3.74,1.89,3.74,4.23,0,.16,0,.25-.02,.39h-6.36c.17,1.74,1.39,2.71,2.82,2.71,1.1,0,1.88-.45,2.53-1.13l.74,.67c-.81,.9-1.78,1.5-3.3,1.5-2.2,0-4-1.69-4-4.17Zm6.37-.46c-.12-1.46-.96-2.73-2.56-2.73-1.39,0-2.45,1.16-2.6,2.73h5.16Z"/>
    <path class="cls-4" d="M210.37,101.16h1.19v11.32h-1.19v-11.32Z"/>
    <path class="cls-4" d="M213.73,110.15v-.03c0-1.69,1.4-2.59,3.43-2.59,1.02,0,1.75,.14,2.47,.34v-.28c0-1.44-.88-2.19-2.39-2.19-.95,0-1.69,.25-2.43,.59l-.36-.98c.88-.4,1.75-.67,2.92-.67s2,.29,2.59,.88c.54,.54,.82,1.32,.82,2.34v4.9h-1.15v-1.21c-.56,.73-1.49,1.38-2.9,1.38-1.49,0-2.99-.85-2.99-2.5Zm5.91-.62v-.78c-.59-.17-1.38-.34-2.36-.34-1.5,0-2.34,.65-2.34,1.66v.03c0,1.01,.93,1.6,2.02,1.6,1.47,0,2.68-.9,2.68-2.17Z"/>
    <path class="cls-4" d="M223.31,104.47h1.19v1.39c.53-.87,1.36-1.57,2.74-1.57,1.94,0,3.07,1.3,3.07,3.21v4.98h-1.19v-4.68c0-1.49-.81-2.42-2.22-2.42s-2.4,1.01-2.4,2.51v4.59h-1.19v-8.01Z"/>
    <path class="cls-4" d="M232.4,108.5v-.03c0-2.62,1.91-4.17,3.83-4.17,1.49,0,2.45,.81,3.07,1.71v-4.84h1.19v11.32h-1.19v-1.61c-.65,.96-1.6,1.78-3.07,1.78-1.92,0-3.83-1.52-3.83-4.16Zm6.95-.02v-.03c0-1.84-1.41-3.08-2.9-3.08s-2.82,1.15-2.82,3.08v.03c0,1.89,1.32,3.1,2.82,3.1s2.9-1.26,2.9-3.1Z"/>
  </g>
  <g>
    <path class="cls-4" d="M.86,88.48v-.03c0-3.05,2.3-5.54,5.59-5.54,2.02,0,3.23,.67,4.22,1.65l-1.5,1.73c-.83-.75-1.67-1.21-2.74-1.21-1.81,0-3.11,1.5-3.11,3.34v.03c0,1.84,1.27,3.37,3.11,3.37,1.22,0,1.97-.49,2.82-1.25l1.5,1.51c-1.1,1.18-2.33,1.91-4.39,1.91-3.15,0-5.49-2.43-5.49-5.51Z"/>
    <path class="cls-4" d="M11.83,89.76v-.03c0-2.36,1.9-4.27,4.45-4.27s4.42,1.88,4.42,4.24v.03c0,2.36-1.9,4.27-4.45,4.27s-4.42-1.88-4.42-4.24Zm6.58,0v-.03c0-1.21-.87-2.27-2.16-2.27s-2.13,1.03-2.13,2.23v.03c0,1.21,.87,2.26,2.16,2.26s2.13-1.03,2.13-2.23Z"/>
    <path class="cls-4" d="M22.49,82.64h2.33v11.17h-2.33v-11.17Z"/>
    <path class="cls-4" d="M26.52,91.45v-.03c0-1.79,1.36-2.62,3.31-2.62,.83,0,1.42,.14,2,.34v-.14c0-.96-.6-1.5-1.76-1.5-.89,0-1.52,.17-2.27,.44l-.58-1.78c.9-.4,1.79-.66,3.18-.66,1.27,0,2.19,.34,2.77,.92,.61,.61,.89,1.52,.89,2.62v4.76h-2.25v-.89c-.57,.63-1.35,1.04-2.48,1.04-1.55,0-2.82-.89-2.82-2.51Zm5.34-.54v-.41c-.4-.18-.92-.31-1.48-.31-.99,0-1.61,.4-1.61,1.13v.03c0,.63,.52,.99,1.27,.99,1.09,0,1.82-.6,1.82-1.44Zm-.55-8.92l2,.87-1.99,1.84h-1.71l1.7-2.71Z"/>
    <path class="cls-4" d="M36.11,82.64h2.45v2.07h-2.45v-2.07Zm.06,2.97h2.33v8.2h-2.33v-8.2Z"/>
    <path class="cls-4" d="M40.04,92.72l.99-1.53c.89,.64,1.82,.98,2.59,.98,.67,0,.98-.25,.98-.61v-.03c0-.5-.8-.67-1.7-.95-1.15-.34-2.45-.87-2.45-2.46v-.03c0-1.67,1.35-2.6,3-2.6,1.04,0,2.17,.35,3.06,.95l-.89,1.61c-.81-.47-1.62-.77-2.22-.77s-.86,.25-.86,.57v.03c0,.46,.78,.67,1.67,.98,1.15,.38,2.48,.93,2.48,2.43v.03c0,1.82-1.36,2.65-3.14,2.65-1.15,0-2.43-.38-3.52-1.24Z"/>
    <path class="cls-4" d="M48.59,91.48v-3.89h-.98v-1.99h.98v-2.1h2.33v2.1h1.93v1.99h-1.93v3.5c0,.54,.23,.8,.75,.8,.43,0,.81-.11,1.15-.29v1.87c-.49,.29-1.06,.47-1.84,.47-1.42,0-2.39-.57-2.39-2.46Z"/>
    <path class="cls-4" d="M53.93,89.76v-.03c0-2.34,1.67-4.27,4.06-4.27,2.74,0,3.99,2.13,3.99,4.45,0,.18-.02,.4-.03,.61h-5.71c.23,1.06,.96,1.61,2,1.61,.78,0,1.35-.25,1.99-.84l1.33,1.18c-.77,.95-1.87,1.53-3.35,1.53-2.46,0-4.29-1.73-4.29-4.24Zm5.79-.69c-.14-1.04-.75-1.75-1.73-1.75s-1.59,.69-1.78,1.75h3.5Z"/>
    <path class="cls-4" d="M68.3,85.61h2.33v1.16c.54-.69,1.22-1.32,2.4-1.32,1.76,0,2.79,1.16,2.79,3.05v5.31h-2.33v-4.58c0-1.1-.52-1.67-1.41-1.67s-1.45,.57-1.45,1.67v4.58h-2.33v-8.2Z"/>
    <path class="cls-4" d="M77.34,91.45v-.03c0-1.79,1.36-2.62,3.31-2.62,.83,0,1.42,.14,2,.34v-.14c0-.96-.6-1.5-1.76-1.5-.89,0-1.52,.17-2.27,.44l-.58-1.78c.9-.4,1.79-.66,3.18-.66,1.27,0,2.19,.34,2.77,.92,.61,.61,.89,1.52,.89,2.62v4.76h-2.25v-.89c-.57,.63-1.35,1.04-2.48,1.04-1.55,0-2.82-.89-2.82-2.51Zm5.34-.54v-.41c-.4-.18-.92-.31-1.48-.31-.99,0-1.61,.4-1.61,1.13v.03c0,.63,.52,.99,1.27,.99,1.09,0,1.82-.6,1.82-1.44Z"/>
    <path class="cls-4" d="M91.48,82.64h2.33v4.13c.54-.69,1.22-1.32,2.4-1.32,1.76,0,2.79,1.16,2.79,3.05v5.31h-2.33v-4.58c0-1.1-.52-1.67-1.41-1.67s-1.45,.57-1.45,1.67v4.58h-2.33v-11.17Z"/>
    <path class="cls-4" d="M100.78,88.48v-.03c0-3.05,2.4-5.54,5.71-5.54s5.68,2.46,5.68,5.51v.03c0,3.05-2.4,5.54-5.71,5.54s-5.68-2.46-5.68-5.51Zm8.92,0v-.03c0-1.84-1.35-3.37-3.24-3.37s-3.21,1.5-3.21,3.34v.03c0,1.84,1.35,3.37,3.24,3.37s3.21-1.5,3.21-3.34Z"/>
    <path class="cls-4" d="M114.12,82.64h2.33v11.17h-2.33v-11.17Z"/>
    <path class="cls-4" d="M118.74,82.64h2.33v11.17h-2.33v-11.17Z"/>
    <path class="cls-4" d="M122.61,92.72l1-1.53c.89,.64,1.82,.98,2.59,.98,.67,0,.98-.25,.98-.61v-.03c0-.5-.8-.67-1.7-.95-1.15-.34-2.45-.87-2.45-2.46v-.03c0-1.67,1.35-2.6,3-2.6,1.04,0,2.17,.35,3.06,.95l-.89,1.61c-.81-.47-1.62-.77-2.22-.77s-.86,.25-.86,.57v.03c0,.46,.78,.67,1.67,.98,1.15,.38,2.48,.93,2.48,2.43v.03c0,1.82-1.36,2.65-3.14,2.65-1.15,0-2.43-.38-3.52-1.24Z"/>
    <path class="cls-4" d="M130.54,89.76v-.03c0-2.34,1.79-4.27,4.3-4.27,1.55,0,2.51,.52,3.28,1.38l-1.42,1.53c-.52-.55-1.04-.9-1.87-.9-1.16,0-1.99,1.03-1.99,2.23v.03c0,1.25,.81,2.26,2.08,2.26,.78,0,1.32-.34,1.88-.87l1.36,1.38c-.8,.87-1.71,1.5-3.35,1.5-2.46,0-4.27-1.9-4.27-4.24Z"/>
    <path class="cls-4" d="M139.05,89.76v-.03c0-2.36,1.9-4.27,4.45-4.27s4.42,1.88,4.42,4.24v.03c0,2.36-1.9,4.27-4.45,4.27s-4.42-1.88-4.42-4.24Zm6.58,0v-.03c0-1.21-.87-2.27-2.16-2.27s-2.13,1.03-2.13,2.23v.03c0,1.21,.87,2.26,2.16,2.26s2.13-1.03,2.13-2.23Z"/>
    <path class="cls-4" d="M149.65,82.64h2.45v2.07h-2.45v-2.07Zm.06,2.97h2.33v8.2h-2.33v-8.2Z"/>
    <path class="cls-4" d="M154.33,82.64h2.33v11.17h-2.33v-11.17Z"/>
    <path class="cls-4" d="M158.45,89.76v-.03c0-2.34,1.67-4.27,4.06-4.27,2.74,0,4,2.13,4,4.45,0,.18-.02,.4-.03,.61h-5.71c.23,1.06,.96,1.61,2,1.61,.78,0,1.35-.25,1.99-.84l1.33,1.18c-.76,.95-1.87,1.53-3.35,1.53-2.46,0-4.29-1.73-4.29-4.24Zm5.79-.69c-.14-1.04-.75-1.75-1.73-1.75s-1.59,.69-1.78,1.75h3.5Z"/>
    <path class="cls-4" d="M172.58,88.48v-.03c0-3.05,2.29-5.54,5.59-5.54,2.02,0,3.23,.67,4.22,1.65l-1.5,1.73c-.83-.75-1.67-1.21-2.74-1.21-1.81,0-3.11,1.5-3.11,3.34v.03c0,1.84,1.27,3.37,3.11,3.37,1.22,0,1.97-.49,2.82-1.25l1.5,1.51c-1.1,1.18-2.33,1.91-4.39,1.91-3.15,0-5.49-2.43-5.49-5.51Z"/>
    <path class="cls-4" d="M183.55,89.76v-.03c0-2.36,1.9-4.27,4.45-4.27s4.42,1.88,4.42,4.24v.03c0,2.36-1.9,4.27-4.45,4.27s-4.42-1.88-4.42-4.24Zm6.58,0v-.03c0-1.21-.87-2.27-2.16-2.27s-2.13,1.03-2.13,2.23v.03c0,1.21,.87,2.26,2.16,2.26s2.13-1.03,2.13-2.23Z"/>
    <path class="cls-4" d="M194.11,85.61h2.33v1.65c.47-1.13,1.24-1.87,2.62-1.81v2.43h-.12c-1.55,0-2.49,.93-2.49,2.89v3.03h-2.33v-8.2Z"/>
    <path class="cls-4" d="M199.88,89.76v-.03c0-2.34,1.79-4.27,4.3-4.27,1.55,0,2.51,.52,3.28,1.38l-1.42,1.53c-.52-.55-1.04-.9-1.87-.9-1.16,0-1.99,1.03-1.99,2.23v.03c0,1.25,.81,2.26,2.08,2.26,.78,0,1.32-.34,1.88-.87l1.36,1.38c-.8,.87-1.71,1.5-3.35,1.5-2.46,0-4.27-1.9-4.27-4.24Z"/>
    <path class="cls-4" d="M208.52,91.45v-.03c0-1.79,1.36-2.62,3.31-2.62,.83,0,1.42,.14,2,.34v-.14c0-.96-.6-1.5-1.76-1.5-.89,0-1.51,.17-2.26,.44l-.58-1.78c.9-.4,1.79-.66,3.18-.66,1.27,0,2.19,.34,2.77,.92,.61,.61,.89,1.52,.89,2.62v4.76h-2.25v-.89c-.57,.63-1.35,1.04-2.48,1.04-1.55,0-2.82-.89-2.82-2.51Zm5.34-.54v-.41c-.4-.18-.92-.31-1.48-.31-1,0-1.61,.4-1.61,1.13v.03c0,.63,.52,.99,1.27,.99,1.09,0,1.82-.6,1.82-1.44Z"/>
    <path class="cls-4" d="M218.12,82.64h2.45v2.07h-2.45v-2.07Zm.06,2.97h2.33v8.2h-2.33v-8.2Z"/>
    <path class="cls-4" d="M222.74,95.43l.8-1.74c.84,.47,1.68,.75,2.77,.75,1.59,0,2.34-.77,2.34-2.24v-.4c-.69,.83-1.44,1.33-2.68,1.33-1.91,0-3.64-1.39-3.64-3.83v-.03c0-2.45,1.76-3.83,3.64-3.83,1.27,0,2.02,.54,2.65,1.22v-1.07h2.33v6.35c0,1.47-.35,2.54-1.04,3.23-.76,.77-1.94,1.1-3.54,1.1-1.33,0-2.59-.31-3.63-.86Zm5.91-6.12v-.03c0-1.12-.87-1.9-2-1.9s-1.99,.78-1.99,1.9v.03c0,1.13,.86,1.9,1.99,1.9s2-.78,2-1.9Z"/>
    <path class="cls-4" d="M233.02,82.64h2.33v4.13c.54-.69,1.22-1.32,2.4-1.32,1.76,0,2.79,1.16,2.79,3.05v5.31h-2.33v-4.58c0-1.1-.52-1.67-1.41-1.67s-1.45,.57-1.45,1.67v4.58h-2.33v-11.17Z"/>
  </g>
</svg>